<?xml version="1.0" encoding="utf-8"?>
<!-- Generator: Adobe Illustrator 19.0.0, SVG Export Plug-In . SVG Version: 6.00 Build 0)  -->
<svg version="1.1" id="Layer_1" xmlns="http://www.w3.org/2000/svg" xmlns:xlink="http://www.w3.org/1999/xlink" x="0px" y="0px"
	 viewBox="-203 297 203.4 200" enable-background="new -203 297 203.4 200" xml:space="preserve">
<path id="XMLID_12_" fill="#FFC1B7" d="M-29.2,347.2L-95,308.4c-1.6-1-4-1.5-6-1.5l0,0c-3,0-4.8,0.5-6.4,1.5l-66.2,38.8
	c-3.4,2-6.4,7-6.4,11v20.1V418v17.8c0,4,3,9,6.3,11l66.1,38.8c1.6,1,3.9,1.5,6.3,1.5s4.6-0.5,6.3-1.5l65.9-38.8c3.4-2,6.2-7,6.2-11
	V418v-59.8C-23,354.3-25.8,349.2-29.2,347.2z M-31,418v17.8c0,0.8-1.4,2.9-2.1,3.3l-66.2,38.8c-0.2,0.1-1,0.3-2,0.3
	s-1.7-0.2-1.9-0.3l-66-38.8c-0.7-0.4-1.8-2.5-1.8-3.3V418v-39.7v-20.1c0-0.8,1.1-2.9,1.8-3.3l66.2-38.8c0.2-0.1,1-0.3,2-0.3l0,0
	c1,0,1.5,0.2,1.7,0.3l66.2,38.8c0.7,0.4,2.1,2.5,2.1,3.3V418z"/>
<path id="XMLID_6_" fill="#0674EC" d="M-5.7,401.1c-0.8-1.7-0.8-4.6,0-6.3L0,383c0.6-1.3,0.6-2.5,0-3.5s-1.7-1.5-3-1.5h-10v-19.8
	c0-7.6-4.7-15.8-11.2-19.6l-66-38.8c-3.1-1.8-7-2.8-11.1-2.8s-8,1-11.1,2.8l-65.7,38.8c-6.5,3.8-10.9,12.1-10.9,19.6V378h-10.5
	c-1.3,0-2.4,0.5-3,1.5s-0.6,2.3,0,3.6l5.7,11.8c0.8,1.7,0.8,4.6,0,6.2l-5.7,11.6c-0.6,1.2-0.6,2.7-0.1,3.6c0.6,1,1.7,1.7,3.1,1.7
	h10.5v17.8c0,7.6,4.4,15.9,10.8,19.6l65.9,38.8c3.1,1.8,7,2.8,11,2.8s7.9-1,11-2.8l66.1-38.8c6.4-3.8,11.1-12,11.1-19.6V418h10
	c1.4,0,2.5-0.8,3.1-1.7c0.6-0.9,0.5-2.2-0.1-3.5L-5.7,401.1z M-23,378.3L-23,378.3V418l0,0v17.8c0,4-2.8,9-6.1,11l-66,38.8
	c-1.6,1-3.8,1.5-6.2,1.5s-4.6-0.5-6.2-1.5l-66.1-38.8c-3.4-2-6.3-7-6.3-11V418l0,0v-39.7l0,0v-20.1c0-4,3-9,6.3-11l66.1-38.8
	c1.6-1,3.9-1.5,6.3-1.5s4.6,0.5,6.3,1.5l65.9,38.8c3.4,2,6.2,7,6.2,11v20.1H-23z"/>
<path id="XMLID_14_" fill="#FFFFFF" d="M-31,358.2v77.5c0,0.8-1.4,2.9-2.1,3.3l-66.2,38.8c-0.2,0.1-1,0.3-2,0.3s-1.7-0.2-1.9-0.3
	l-66-38.8c-0.7-0.4-1.8-2.5-1.8-3.3v-77.5c0-0.8,1.1-2.9,1.8-3.3l66-38.8c0.2-0.1,0.9-0.3,1.9-0.3s1.7,0.2,1.9,0.3l66.3,38.8
	C-32.4,355.4-31,357.4-31,358.2z"/>
<g id="XMLID_5_">
	<g id="XMLID_777_">
		<path id="XMLID_2431_" fill="#FF5A54" d="M-105.6,407.3c-0.4,1-0.9,2-1.3,3.1c0,0.1-0.1,0.1-0.1,0.2l0,0c0,0,0,0.1,0,0.2
			c-0.8,2.2-1.6,4.4-2.4,6.6c-0.3,0.8-0.7,1.6-0.8,2.5c-0.4,0.8-0.6,1.6-0.9,2.4c-0.6,1.5-1.1,2.9-1.7,4.4c-0.3,0.8-0.7,1.5-0.8,2.3
			c0,0,0,0.1-0.1,0.1c-1.1-0.7-2.3-1.1-3.5-1.4c0.7-2,1.5-4,2.2-6c0.2-0.6,0.4-1.3,0.7-1.9c0.5-0.9,0.7-1.9,1.1-2.8
			c0.5-1.4,1-2.8,1.6-4.2c0.7-2,1.5-3.9,2.2-5.9c0.1-0.3,0.3-0.5,0.6-0.4c1,0.1,2,0.3,3.1,0.3C-105.3,406.8-105.5,407.1-105.6,407.3
			z"/>
		<path id="XMLID_2426_" fill="#FF5A54" d="M-117,387.8c-1.2,1.1-2.3,2.2-3,3.7c-0.2,0.3-0.4,0.6-0.4,0.9c-0.2,0.1-0.4,0.1-0.5,0.2
			c-1.1,0.3-2.1,0.6-3.2,0.8c-1.4,0.4-2.8,0.7-4.2,1.1c-0.1,0-0.3,0-0.3,0.1c0,0,0,0-0.1,0c-1.2,0.3-2.5,0.6-3.7,0.9
			c-1.7,0.4-3.5,0.9-5.2,1.3c-0.1,0-0.1,0-0.1,0.1c-0.1,0-0.2,0-0.4,0.1c0-1.3-0.3-2.6-0.8-3.8c0.2,0,0.4-0.1,0.6-0.2
			c0.3-0.1,0.6-0.1,0.8-0.2c0.3,0,0.6-0.1,0.9-0.2c2.6-0.6,5.2-1.3,7.8-2c0.9-0.2,1.8-0.4,2.7-0.6c1.5-0.4,2.9-0.7,4.4-1.1
			c0.6-0.2,1.2-0.2,1.8-0.5c0.8,0,1.5-0.3,2.2-0.5C-117.5,387.9-117.3,387.8-117,387.8z"/>
		<path id="XMLID_2428_" fill="#FF5A54" d="M-111.4,378.4c-0.8-0.6-1.6-1.2-2.4-1.8c-1.1-0.8-2.2-1.7-3.3-2.5
			c-0.9-0.7-1.8-1.4-2.7-2.1c-0.8-0.6-1.6-1.3-2.5-1.9c-0.9-0.7-1.8-1.3-2.6-2c0.4-0.4,0.7-0.8,1.1-1.3c0.4-0.6,0.8-1.2,1.1-1.9
			l0.1,0.1c0.8,0.7,1.7,1.3,2.6,1.9c1.1,1,2.4,1.8,3.5,2.7c1.5,1.2,3.1,2.3,4.6,3.5c0.2,0.1,0.3,0.3,0.3,0.6
			c-0.2,0.8-0.3,1.7-0.2,2.5C-111.8,377.1-111.5,377.6-111.4,378.4z"/>
		<path id="XMLID_2418_" fill="#FF5A54" d="M-73.1,371.4c-0.8,0.5-1.5,0.9-2.3,1.4c-0.8,0.4-1.6,0.9-2.4,1.4
			c-0.7,0.4-1.4,0.8-2.1,1.3c-1.5,0.9-3.1,1.9-4.6,2.8c-0.1,0-0.1,0.1-0.2,0.1c-1.1,0.6-2,1.2-3.1,1.8c-0.3,0.2-0.6,0.5-1.1,0.6
			c0-0.1,0-0.2,0.1-0.2c0.9-1.6,1.5-3.2,1.7-5c0-0.2,0.1-0.2,0.2-0.3c0.6-0.3,1.1-0.7,1.6-1c0.3-0.1,0.6-0.3,0.8-0.5
			c1-0.5,2-1.2,2.9-1.7c1.9-1.1,3.7-2.3,5.5-3.4c0.2-0.1,0.4-0.2,0.6-0.4c0.1,0,0.2-0.1,0.2-0.1C-74.6,369.2-73.9,370.4-73.1,371.4z
			"/>
		<path id="XMLID_2451_" fill="#FF5A54" d="M-54.7,363.9c0,4.3-2.7,7.9-6.4,9.2c-1,0.4-2,0.5-3.1,0.5c-2.8,0-5.4-1.3-7.2-3.3
			c-0.8-1-1.5-2.1-1.9-3.3c-0.3-1-0.5-2.1-0.5-3.2c0-4.3,2.7-7.9,6.4-9.2c1-0.4,2.1-0.6,3.2-0.6C-59,354.1-54.7,358.5-54.7,363.9z"
			/>
		<path id="XMLID_2430_" fill="#FF5A54" d="M-44.1,415.4c0,1.3-0.2,2.5-0.7,3.6c-0.1,0.1-0.1,0.3-0.2,0.5c0,0.1-0.1,0.1-0.1,0.2
			c-1.6,3.3-4.8,5.5-8.6,5.5c-5.3,0-9.5-4.2-9.5-9.6c0-2.7,1-5.6,2.7-6.6l0,0c1.7-2,4.1-3.1,6.8-3.1
			C-48.4,405.9-44.1,410-44.1,415.4z"/>
		<path id="XMLID_2447_" fill="#FF5A54" d="M-110,439.2c0,2.2-0.7,4.2-1.9,5.8c-1.7,2.4-4.5,4-7.7,4c-5.3,0-9.5-4.4-9.5-9.8
			c0-0.5,0-1.1,0.1-1.6c0.7-4.7,4.7-8.2,9.4-8.2c0.5,0,1.1,0,1.6,0.1c1.3,0.2,2.4,0.7,3.5,1.4C-111.8,432.7-110,435.8-110,439.2z"/>
		<path id="XMLID_2389_" fill="#FF5A54" d="M-140,397.6c0,2.2-0.7,4.2-1.9,5.8c-1.7,2.4-4.5,4-7.7,4c-5.3,0-9.5-4.4-9.5-9.8
			c0-0.5,0-1.1,0.1-1.6c0.7-4.7,4.7-8.2,9.4-8.2c0.5,0,1.1,0,1.6,0.1c1.3,0.2,2.4,0.7,3.5,1.4C-141.8,391-140,394.1-140,397.6z"/>
		<path id="XMLID_2400_" fill="#FF5A54" d="M-123.6,359.9c0,1.3-0.3,2.6-0.7,3.8c-0.3,0.7-0.7,1.4-1.1,2c-0.3,0.4-0.7,0.9-1.1,1.3
			c-1.7,1.7-4,2.7-6.6,2.7c-5.3,0-9.5-4.4-9.5-9.8c0-0.5,0-1.1,0.1-1.6c0.1-0.6,0.2-1.2,0.4-1.7l0,0c1.3-3.8,4.8-6.5,9-6.5
			c0.5,0,1.1,0,1.6,0.1c1.3,0.2,2.4,0.7,3.5,1.4C-125.3,353.3-123.6,356.4-123.6,359.9z"/>
		<path id="XMLID_2414_" fill="#FF5A54" d="M-61.9,407.7c-1,0.7-1.7,1.9-2.3,3.1l-12.9-8.6c0,0,1-2.1,0.3-4.3L-61.9,407.7z"/>
	</g>
	<path id="XMLID_2391_" fill="#FF5A54" d="M-79.9,399.5c-0.3-1.5-0.5-3-1.1-4.4c-0.3-0.8-0.6-1.5-1-2.2c-0.1-0.1-0.1-0.2-0.1-0.3
		c-0.6-0.9-1.3-1.8-2.2-2.4c-0.3-0.2-0.6-0.3-0.9-0.5c-0.9-0.5-2.9-1.4-2.9-1.4l0,0c-0.9-0.4-1.8-0.8-2.7-1.3
		c-0.8-0.4-1.7-0.7-2.4-1.3c-0.5-0.1-0.9-0.5-1.3-0.7c-0.2-0.1-0.1-0.2,0-0.3c0.3-0.4,0.6-0.8,0.9-1.2c0.1-0.3,0.1-0.6,0.4-0.8l0,0
		c0-0.1,0-0.1,0.1-0.2c0.3-0.8,0.4-1.6,1-2.3c1-1.2,1.6-2.6,1.8-4.1c0-0.1-0.1-0.2,0-0.2c0-0.5,0-1,0-1.4c-0.1-0.5-0.2-0.9-0.7-1.1
		c-0.2-0.1-0.1-0.3-0.1-0.4c0-1.1-0.1-2.1-0.1-3.2c0-1.6-0.3-3-1.1-4.3c0-0.1,0-0.2,0-0.2c-0.3-0.3-0.6-0.7-0.9-1.1
		c-0.4-0.1-0.7-0.5-1-0.7c-1.2-0.8-2.6-1.2-4.1-1.3c-1.2-0.1-2.3-0.1-3.5,0.2c-0.1,0-0.1,0-0.2,0c-0.7,0.2-1.3,0.4-2,0.8
		c-1,0.5-1.8,1.3-2.4,2.2c-0.2,0.7-0.6,1.2-0.8,1.9c-0.2,0.8-0.3,1.5-0.4,2.3c0,1.2-0.1,2.4-0.1,3.5c0,0.2,0,0.4-0.3,0.5
		c-0.4,0.1-0.3,0.5-0.5,0.8v0.1c-0.3,2.3,0.5,4.2,1.9,5.9c0.3,0.4,0.5,0.7,0.6,1.2c0.2,0.6,0.4,1.3,0.7,1.9c0.3,0.5,0.7,1,1,1.4
		c0.2,0.2,0.1,0.3-0.1,0.4c-1,0.6-2,1.1-3,1.6s-2.1,1-3.1,1.4c-0.1,0.1-0.3,0.1-0.5,0.1c-0.5,0.4-1.1,0.6-1.7,0.8
		c-0.9,0.4-1.8,0.8-2.5,1.5c-0.6,0.5-1.1,1.2-1.5,1.8c0,0.1,0,0.1-0.1,0.1l0,0c-0.1,0.3-0.3,0.6-0.4,0.8c-1,2-1.6,4.1-1.8,6.3
		c-0.2,1.9,0.8,1.9,0.8,2c0.9,0.3,1.9,0.6,2.8,0.8c1,0.2,3,0.6,3,0.6s7.3,1.8,19.1,0.8l0,0l0,0c2.7-0.2,5.6-0.6,8.8-1.2h0.1
		c1.2-0.3,2.4-0.5,3.5-0.9c0,0,0.2-0.1,0.4-0.4l0,0C-79.9,400.7-79.8,400.1-79.9,399.5z"/>
</g>
<g id="XMLID_1_">
	<path id="XMLID_38_" fill="#0674EC" d="M-57.7,348.5c-13.5,0-24.5-11-24.5-24.5s11-24.5,24.5-24.5s24.5,11,24.5,24.5
		S-44.1,348.5-57.7,348.5z"/>
	<path id="XMLID_35_" fill="#FFFFFF" d="M-57.7,302c12.1,0,22,9.9,22,22s-9.9,22-22,22s-22-9.9-22-22S-69.8,302-57.7,302 M-57.7,297
		c-14.9,0-27,12.1-27,27s12.1,27,27,27s27-12.1,27-27S-42.7,297-57.7,297L-57.7,297z"/>
</g>
<text id="XMLID_23_" transform="matrix(1 0 0 1 -63.937 335.8357)" fill="#FFFFFF" font-family="'Quicksand-Bold'" font-size="34px">1</text>
</svg>
