<?xml version="1.0" encoding="utf-8"?>
<!-- Generator: Adobe Illustrator 19.0.0, SVG Export Plug-In . SVG Version: 6.00 Build 0)  -->
<svg version="1.1" id="Layer_1" xmlns="http://www.w3.org/2000/svg" xmlns:xlink="http://www.w3.org/1999/xlink" x="0px" y="0px"
	 viewBox="-203 297 203.4 200" enable-background="new -203 297 203.4 200" xml:space="preserve">
<path id="XMLID_44_" fill="#FFFFFF" d="M-32,358.6v77.5c0,0.8-0.9,2.9-1.6,3.3l-65.9,38.8c-0.2,0.1-0.8,0.3-1.8,0.3
	s-1.7-0.2-1.9-0.3l-66-38.8c-0.7-0.4-1.8-2.5-1.8-3.3v-77.5c0-0.8,1.1-2.9,1.8-3.3l66-38.8c0.2-0.1,0.9-0.3,1.9-0.3s1.7,0.2,1.9,0.3
	l65.8,38.8C-32.9,355.7-32,357.8-32,358.6z"/>
<path id="XMLID_37_" fill="#B9E5FB" d="M-29.2,347.2L-95,308.4c-1.6-1-4-1.5-6-1.5l0,0c-3,0-4.7,0.5-6.4,1.5l-66.1,38.8
	c-3.4,2-6.5,7-6.5,11v20.1V418v17.8c0,4,3,9,6.4,11l66,38.8c1.6,1,3.9,1.5,6.3,1.5s4.6-0.5,6.3-1.5l65.9-38.8c3.4-2,6.1-7,6.1-11
	V418v-59.8C-23,354.3-25.8,349.2-29.2,347.2z M-32,418v17.8c0,0.8-0.9,2.9-1.6,3.3l-65.9,38.8c-0.2,0.1-0.8,0.3-1.8,0.3
	s-1.7-0.2-1.9-0.3l-66-38.8c-0.7-0.4-1.9-2.5-1.9-3.3V418v-39.7v-20.1c0-0.8,1.2-2.9,1.9-3.3l66.2-38.8c0.2-0.1,1-0.3,2-0.3l0,0
	c1,0,1.6,0.2,1.7,0.3l65.7,38.8c0.7,0.4,1.6,2.5,1.6,3.3V418z"/>
<path id="XMLID_5_" fill="#16C3F9" d="M-5.7,401.1c-0.8-1.7-0.8-4.6,0-6.3L0,383c0.6-1.3,0.6-2.5,0-3.5s-1.7-1.5-3-1.5h-10v-19.8
	c0-7.6-4.7-15.8-11.1-19.6l-66-38.8c-3.1-1.8-7-2.8-11.1-2.8s-8,1-11.1,2.8l-65.8,38.8c-6.4,3.8-10.9,12.1-10.9,19.6V378h-10.4
	c-1.3,0-2.4,0.5-3,1.5c-0.6,1-0.6,2.3,0,3.6l5.7,11.8c0.8,1.7,0.8,4.6,0,6.2l-5.7,11.6c-0.6,1.2-0.6,2.7-0.1,3.6
	c0.6,1,1.7,1.7,3.1,1.7h10.4v17.8c0,7.6,4.5,15.9,10.9,19.6l65.9,38.8c3.1,1.8,7,2.8,11,2.8s7.9-1,11-2.8l66-38.8
	c6.4-3.8,11.1-12,11.1-19.6V418h10c1.4,0,2.5-0.8,3.1-1.7c0.6-0.9,0.5-2.2-0.1-3.5L-5.7,401.1z M-23,378.3L-23,378.3V418l0,0v17.8
	c0,4-2.8,9-6.1,11L-95,485.6c-1.6,1-3.8,1.5-6.2,1.5c-2.4,0-4.6-0.5-6.2-1.5l-66.1-38.8c-3.4-2-6.4-7-6.4-11V418l0,0v-39.7l0,0
	v-20.1c0-4,3-9,6.4-11l66-38.8c1.6-1,3.9-1.5,6.3-1.5s4.6,0.5,6.3,1.5l65.9,38.8c3.4,2,6.1,7,6.1,11v20.1H-23z"/>
<g id="XMLID_93_">
	<polygon id="XMLID_96_" fill="#16C3F9" points="-101.5,453.7 -151.2,395.8 -51.8,395.8 	"/>
</g>
<g id="XMLID_4_">
	<g id="XMLID_89_">
		<polygon id="XMLID_90_" fill="#C7EAFB" points="-134.7,373.4 -151.2,395.8 -118.2,395.8 		"/>
	</g>
	<g id="XMLID_87_">
		<polygon id="XMLID_88_" fill="#C7EAFB" points="-101.6,373.4 -118.1,395.8 -85.1,395.8 		"/>
	</g>
	<g id="XMLID_85_">
		<polygon id="XMLID_86_" fill="#C7EAFB" points="-68.3,373.4 -84.7,395.8 -51.8,395.8 		"/>
	</g>
</g>
<g id="XMLID_1_">
	<g id="XMLID_99_">
		<polygon id="XMLID_100_" fill="#8ED8F8" points="-84.9,396 -101.6,373.4 -68.3,373.4 		"/>
	</g>
	<g id="XMLID_97_">
		<polygon id="XMLID_98_" fill="#8ED8F8" points="-118.1,396 -134.7,373.4 -101.4,373.4 		"/>
	</g>
	<g id="XMLID_91_">
		<polygon id="XMLID_92_" fill="#8ED8F8" points="-101.5,453.7 -118.1,395.8 -84.7,395.8 		"/>
	</g>
	<g id="XMLID_83_">
		<path id="XMLID_84_" fill="#8ED8F8" d="M-81,364.8c-2.6,0.8-3.2,1.4-3.9,4c-0.8-2.6-1.4-3.3-3.9-4c2.6-0.8,3.2-1.4,3.9-4
			C-84.1,363.4-83.5,364-81,364.8z"/>
	</g>
	<g id="XMLID_81_">
		<path id="XMLID_82_" fill="#8ED8F8" d="M-106.8,360.7c-3.6,1.1-4.4,2-5.5,5.6c-1.1-3.7-1.9-4.5-5.5-5.6c3.6-1.1,4.4-2,5.5-5.6
			C-111.2,358.8-110.4,359.7-106.8,360.7z"/>
	</g>
	<g id="XMLID_79_">
		<path id="XMLID_80_" fill="#8ED8F8" d="M-87.6,348.4c-4.5,1.4-5.6,2.5-6.9,7.1c-1.3-4.6-2.4-5.7-6.9-7.1c4.5-1.4,5.6-2.5,6.9-7.1
			C-93.2,345.9-92.1,347-87.6,348.4z"/>
	</g>
</g>
</svg>
