<?xml version="1.0" encoding="utf-8"?>
<!-- Generator: Adobe Illustrator 19.0.0, SVG Export Plug-In . SVG Version: 6.00 Build 0)  -->
<svg version="1.1" id="Layer_1" xmlns="http://www.w3.org/2000/svg" xmlns:xlink="http://www.w3.org/1999/xlink" x="0px" y="0px"
	 viewBox="-203 297 203.4 200" enable-background="new -203 297 203.4 200" xml:space="preserve">
<path id="XMLID_2092_" fill="#FFFFFF" d="M-31,358.3v77.6c0,0.8-1.3,2.9-2,3.3L-99.1,478c-0.2,0.1-0.9,0.3-1.9,0.3s-1.7-0.2-1.9-0.3
	l-66.1-38.8c-0.7-0.4-1.9-2.5-1.9-3.3v-77.6c0-0.8,1.2-2.9,1.9-3.3l66-38.8c0.2-0.1,0.9-0.3,1.9-0.3s1.7,0.2,1.9,0.3L-33,355
	C-32.3,355.4-31,357.5-31,358.3z"/>
<g id="XMLID_1_">
	<polygon id="XMLID_2065_" fill="#713EB5" points="-69.1,454 -89.9,454 -106.4,426 -85.7,426 	"/>
	<polygon id="XMLID_2042_" fill="#713EB5" points="-95.2,426 -111.8,454 -132.5,454 -116,426 	"/>
</g>
<g id="XMLID_2062_">
	<g id="XMLID_2063_">
		<path id="XMLID_2064_" fill="#F58220" d="M-107.1,434.5l-8.8-6c-1.2-0.8-2.5-1.3-3.8-1.6l-10.4-2.1c-4.2-0.8-7.4-4.2-8.2-8.4
			l-2-10.6c-0.3-1.4-0.8-2.7-1.6-3.9l-5.9-9c-2.4-3.6-2.4-8.3,0-11.9l5.9-9c0.8-1.2,1.3-2.5,1.6-3.9l2-10.6c0.8-4.3,4.1-7.6,8.2-8.4
			l10.4-2.1c1.4-0.3,2.7-0.8,3.8-1.6l8.8-6c3.5-2.4,8.1-2.4,11.6,0l8.8,6c1.2,0.8,2.5,1.3,3.8,1.6l10.4,2.1c4.2,0.8,7.4,4.2,8.2,8.4
			l2,10.6c0.3,1.4,0.8,2.7,1.6,3.9l5.9,9c2.4,3.6,2.4,8.3,0,11.9l-5.9,9c-0.8,1.2-1.3,2.5-1.6,3.9l-2,10.6c-0.8,4.3-4.1,7.6-8.2,8.4
			l-10.4,2.1c-1.4,0.3-2.7,0.8-3.8,1.6l-8.8,6C-99,436.9-103.6,436.9-107.1,434.5z"/>
	</g>
</g>
<g id="XMLID_2059_">
	<g id="XMLID_47_">
		<g id="XMLID_48_">
			<ellipse id="XMLID_49_" fill="#FAA61A" cx="-101.3" cy="386.8" rx="32.9" ry="33.8"/>
		</g>
	</g>
</g>
<text id="XMLID_618_" transform="matrix(0.9757 0 0 1 -112.19 403.3691)" fill="#FFFFFF" font-family="'Quicksand-Bold'" font-size="43.7004px">3</text>
<path id="XMLID_12_" fill="#FBCDA6" d="M-29.2,347.3L-95,308.4c-1.6-1-4-1.5-6-1.5l0,0c-3,0-4.8,0.5-6.4,1.5l-66.2,38.9
	c-3.4,2-6.4,7-6.4,11v20.1v39.7v17.8c0,4,3,9.1,6.3,11l66.1,38.8c1.6,1,3.9,1.5,6.3,1.5s4.6-0.5,6.3-1.5l65.9-38.8
	c3.4-2,6.2-7,6.2-11v-17.8v-59.8C-23,354.3-25.8,349.3-29.2,347.3z M-31,418.2V436c0,0.8-1.4,2.9-2.1,3.3l-66.2,38.8
	c-0.2,0.1-1,0.3-2,0.3s-1.7-0.2-1.9-0.3l-66-38.8c-0.7-0.4-1.8-2.5-1.8-3.3v-17.8v-39.8v-20.1c0-0.8,1.1-2.9,1.8-3.3l66.2-38.8
	c0.2-0.1,1-0.3,2-0.3l0,0c1,0,1.5,0.2,1.7,0.3l66.2,38.8c0.7,0.4,2.1,2.5,2.1,3.3V418.2z"/>
<path id="XMLID_4_" fill="#0674EC" d="M-5.7,401.2c-0.8-1.7-0.8-4.6,0-6.3L0,383.1c0.6-1.3,0.6-2.6,0-3.6s-1.7-1.5-3-1.5h-10v-19.7
	c0-7.6-4.7-15.9-11.2-19.7l-66-38.8c-3.1-1.8-7-2.8-11.1-2.8s-8,1-11.1,2.8l-65.7,38.9c-6.5,3.8-10.9,12-10.9,19.6V378h-10.5
	c-1.3,0-2.4,0.5-3,1.5s-0.6,2.3,0,3.6l5.7,11.8c0.8,1.7,0.8,4.6,0,6.3l-5.7,11.6c-0.6,1.2-0.6,2.6-0.1,3.5c0.6,1,1.7,1.6,3.1,1.6
	h10.5v17.9c0,7.6,4.4,15.9,10.8,19.7l65.9,38.9c3.1,1.8,7,2.8,11,2.8s7.9-1,11-2.8l66.1-38.9c6.4-3.8,11.1-12,11.1-19.7V418h10
	c1.4,0,2.5-0.7,3.1-1.6s0.5-2.2-0.1-3.5L-5.7,401.2z M-23,378.4L-23,378.4v39.7l0,0v17.8c0,4-2.8,9.1-6.1,11l-66,38.8
	c-1.6,1-3.8,1.5-6.2,1.5s-4.6-0.5-6.2-1.5l-66.2-38.7c-3.4-2-6.3-7-6.3-11v-17.8l0,0v-39.8l0,0v-20.1c0-4,3-9,6.3-11l66.1-38.8
	c1.6-1,3.9-1.5,6.3-1.5s4.6,0.5,6.3,1.5l65.9,38.8c3.4,2,6.2,7,6.2,11L-23,378.4L-23,378.4z"/>
</svg>
