<?xml version="1.0" encoding="utf-8"?>
<!-- Generator: Adobe Illustrator 19.0.0, SVG Export Plug-In . SVG Version: 6.00 Build 0)  -->
<svg version="1.1" id="Layer_1" xmlns="http://www.w3.org/2000/svg" xmlns:xlink="http://www.w3.org/1999/xlink" x="0px" y="0px"
	 viewBox="-203 297 203.4 200" enable-background="new -203 297 203.4 200" xml:space="preserve">
<path id="XMLID_30_" fill="#FFFFFF" d="M-31,358.2v77.5c0,0.8-1.4,2.9-2.1,3.3l-66.2,38.8c-0.2,0.1-1,0.3-2,0.3s-1.8-0.2-1.9-0.3
	l-66-38.8c-0.7-0.4-1.8-2.5-1.8-3.3v-77.5c0-0.8,1.1-2.9,1.8-3.3l66.2-38.8c0.2-0.1,1-0.3,2-0.3l0,0c1,0,1.5,0.2,1.7,0.3l66.3,38.8
	C-32.3,355.4-31,357.4-31,358.2z"/>
<path id="XMLID_24_" fill="#FFF1AD" d="M-29.2,347.2L-95,308.4c-1.6-1-4-1.5-6-1.5l0,0c-3,0-4.8,0.5-6.4,1.5l-66.2,38.8
	c-3.4,2-6.4,7-6.4,11v20.1V418v17.8c0,4,3,9,6.3,11l66.1,38.8c1.6,1,3.9,1.5,6.3,1.5s4.6-0.5,6.3-1.5l65.9-38.8c3.4-2,6.2-7,6.2-11
	V418v-59.8C-23,354.3-25.8,349.2-29.2,347.2z M-31,418v17.8c0,0.8-1.4,2.9-2.1,3.3l-66.2,38.8c-0.2,0.1-1,0.3-2,0.3
	s-1.7-0.2-1.9-0.3l-66-38.8c-0.7-0.4-1.8-2.5-1.8-3.3V418v-39.7v-20.1c0-0.8,1.1-2.9,1.8-3.3l66.2-38.8c0.2-0.1,1-0.3,2-0.3l0,0
	c1,0,1.5,0.2,1.7,0.3l66.2,38.8c0.7,0.4,2.1,2.5,2.1,3.3V418z"/>
<path id="XMLID_13_" fill="#F7941E" d="M-5.7,401.1c-0.8-1.7-0.8-4.6,0-6.3L0,383c0.6-1.3,0.6-2.5,0-3.5s-1.7-1.5-3-1.5h-10v-19.8
	c0-7.6-4.7-15.8-11.2-19.6l-66-38.8c-3.1-1.8-7-2.8-11.1-2.8s-8,1-11.1,2.8l-65.7,38.8c-6.5,3.8-10.9,12.1-10.9,19.6V378h-10.5
	c-1.3,0-2.4,0.5-3,1.5s-0.6,2.3,0,3.6l5.7,11.8c0.8,1.7,0.8,4.6,0,6.2l-5.7,11.6c-0.6,1.2-0.6,2.7-0.1,3.6c0.6,1,1.7,1.7,3.1,1.7
	h10.5v17.8c0,7.6,4.4,15.9,10.8,19.6l65.9,38.8c3.1,1.8,7,2.8,11,2.8s7.9-1,11-2.8l66.1-38.8c6.4-3.8,11.1-12,11.1-19.6V418h10
	c1.4,0,2.5-0.8,3.1-1.7c0.6-0.9,0.5-2.2-0.1-3.5L-5.7,401.1z M-23,378.3L-23,378.3V418l0,0v17.8c0,4-2.8,9-6.1,11l-66,38.8
	c-1.6,1-3.8,1.5-6.2,1.5s-4.6-0.5-6.2-1.5l-66.1-38.8c-3.4-2-6.3-7-6.3-11V418l0,0v-39.7l0,0v-20.1c0-4,3-9,6.3-11l66.1-38.8
	c1.6-1,3.9-1.5,6.3-1.5s4.6,0.5,6.3,1.5l65.9,38.8c3.4,2,6.2,7,6.2,11v20.1H-23z"/>
<g id="XMLID_54_">
	<polygon id="XMLID_58_" fill="#F7941E" points="-100.9,452.9 -150.6,395 -51.1,395 	"/>
</g>
<g id="XMLID_45_">
	<g id="XMLID_40_">
		<polygon id="XMLID_41_" fill="#FFCB05" points="-134.1,372.7 -150.6,395 -117.6,395 		"/>
	</g>
	<g id="XMLID_4_">
		<polygon id="XMLID_12_" fill="#FFCB05" points="-101,372.7 -117.5,395 -84.5,395 		"/>
	</g>
	<g id="XMLID_34_">
		<polygon id="XMLID_35_" fill="#FFCB05" points="-67.6,372.7 -84.1,395 -51.1,395 		"/>
	</g>
</g>
<g id="XMLID_73_">
	<g id="XMLID_63_">
		<polygon id="XMLID_64_" fill="#FCB412" points="-84.3,395.3 -101,372.7 -67.6,372.7 		"/>
	</g>
	<g id="XMLID_59_">
		<polygon id="XMLID_60_" fill="#FCB412" points="-117.5,395.3 -134.1,372.7 -100.8,372.7 		"/>
	</g>
	<g id="XMLID_42_">
		<polygon id="XMLID_43_" fill="#FCB412" points="-100.9,452.9 -117.5,395 -84.1,395 		"/>
	</g>
	<g id="XMLID_29_">
		<path id="XMLID_33_" fill="#FCB412" d="M-80.4,364c-2.6,0.8-3.2,1.4-3.9,4c-0.8-2.6-1.4-3.3-3.9-4c2.6-0.8,3.2-1.4,3.9-4
			C-83.5,362.6-82.9,363.3-80.4,364z"/>
	</g>
	<g id="XMLID_27_">
		<path id="XMLID_28_" fill="#FCB412" d="M-106.2,360c-3.6,1.1-4.4,2-5.5,5.6c-1.1-3.7-1.9-4.5-5.5-5.6c3.6-1.1,4.4-2,5.5-5.6
			C-110.7,358-109.8,358.9-106.2,360z"/>
	</g>
	<g id="XMLID_25_">
		<path id="XMLID_26_" fill="#FCB412" d="M-87,347.7c-4.5,1.4-5.6,2.5-6.9,7.1c-1.3-4.6-2.4-5.7-6.9-7.1c4.5-1.4,5.6-2.5,6.9-7.1
			C-92.6,345.2-91.5,346.3-87,347.7z"/>
	</g>
</g>
</svg>
