<?xml version="1.0" encoding="utf-8"?>
<!-- Generator: Adobe Illustrator 19.0.0, SVG Export Plug-In . SVG Version: 6.00 Build 0)  -->
<svg version="1.1" id="Layer_1" xmlns="http://www.w3.org/2000/svg" xmlns:xlink="http://www.w3.org/1999/xlink" x="0px" y="0px"
	 viewBox="-203 297 203.4 200" enable-background="new -203 297 203.4 200" xml:space="preserve">
<path id="XMLID_30_" fill="#FFFFFF" d="M-31.1,359.2v77.5c0,0.8-1.4,2.9-2.1,3.3l-66.2,38.8c-0.2,0.1-1,0.3-2,0.3s-1.8-0.2-1.9-0.3
	l-66-38.8c-0.7-0.4-1.8-2.5-1.8-3.3v-77.5c0-0.8,1.1-2.9,1.8-3.3l66.2-38.8c0.2-0.1,1-0.3,2-0.3l0,0c1,0,1.5,0.2,1.7,0.3l66.3,38.8
	C-32.4,356.4-31.1,358.4-31.1,359.2z"/>
<g id="Shape_5">
	<polygon id="XMLID_313_" fill="#7C4A0F" points="-101.5,453.9 -151.2,396 -51.7,396 	"/>
</g>
<g id="Shape_4">
	<g id="XMLID_308_">
		<polygon id="XMLID_309_" fill="#F7931E" points="-134.7,373.7 -151.2,396 -118.2,396 		"/>
	</g>
	<g id="XMLID_306_">
		<polygon id="XMLID_307_" fill="#F7931E" points="-101.6,373.7 -118,396 -85.1,396 		"/>
	</g>
	<g id="XMLID_304_">
		<polygon id="XMLID_305_" fill="#F7931E" points="-68.2,373.7 -84.7,396 -51.7,396 		"/>
	</g>
</g>
<g id="star">
	<g id="XMLID_316_">
		<polygon id="XMLID_317_" fill="#B96E16" points="-84.9,396.3 -101.6,373.7 -68.2,373.7 		"/>
	</g>
	<g id="XMLID_314_">
		<polygon id="XMLID_315_" fill="#B96E16" points="-118,396.3 -134.7,373.7 -101.4,373.7 		"/>
	</g>
	<g id="XMLID_310_">
		<polygon id="XMLID_311_" fill="#B96E16" points="-101.5,453.9 -118,396 -84.7,396 		"/>
	</g>
	<g id="XMLID_301_">
		<path id="XMLID_302_" fill="#B96E16" d="M-80.9,365c-2.6,0.8-3.2,1.4-3.9,4c-0.8-2.6-1.4-3.3-3.9-4c2.6-0.8,3.2-1.4,3.9-4
			C-84.1,363.6-83.5,364.3-80.9,365z"/>
	</g>
	<g id="XMLID_292_">
		<path id="XMLID_298_" fill="#B96E16" d="M-106.8,361c-3.6,1.1-4.4,2-5.5,5.6c-1.1-3.7-1.9-4.5-5.5-5.6c3.6-1.1,4.4-2,5.5-5.6
			C-111.2,359-110.4,359.9-106.8,361z"/>
	</g>
	<g id="XMLID_290_">
		<path id="XMLID_291_" fill="#B96E16" d="M-87.6,348.7c-4.5,1.4-5.6,2.5-6.9,7.1c-1.3-4.6-2.4-5.7-6.9-7.1c4.5-1.4,5.6-2.5,6.9-7.1
			C-93.2,346.2-92.1,347.3-87.6,348.7z"/>
	</g>
</g>
<path id="Shape_2" fill="#FCD4A5" d="M-29.3,348.2l-65.8-38.8c-1.6-1-4-1.5-6-1.5l0,0c-3,0-4.8,0.5-6.4,1.5l-65.7,38.8
	c-3.4,2-5.9,7-5.9,11v77.5c0,4,2.5,9,5.8,11l56.8,33.5l9.1,5.3c1.6,1,3.8,1.5,6.1,1.5c2.4,0,4.5-0.5,6.2-1.5l9.1-5.3l56.8-33.5
	c3.4-2,6.1-7,6.1-11v-77.5C-23.1,355.3-25.9,350.2-29.3,348.2z M-31.1,436.8c0,0.8-1.4,2.9-2.1,3.3l-66.2,38.8c-0.2,0.1-1,0.3-2,0.3
	s-1.8-0.2-1.9-0.3l-66-38.8c-0.7-0.4-1.8-2.5-1.8-3.3v-77.6c0-0.8,1.1-2.9,1.8-3.3l66.2-38.8c0.2-0.1,1-0.3,2-0.3l0,0
	c1,0,1.5,0.2,1.7,0.3l66.3,38.8c0.7,0.4,2,2.5,2,3.3C-31.1,359.2-31.1,436.8-31.1,436.8z"/>
<path id="Shape_1_1_" fill="#7C4A0F" d="M-5.8,402.1c-0.8-1.7-0.8-4.6,0-6.3l5.7-11.8c0.6-1.3,0.6-2,0-3s-1.7-1-3-1h-10v-20.8
	c0-7.6-4.7-15.8-11.2-19.6l-66-38.8c-3.1-1.8-7-2.8-11.1-2.8s-8,1-11.1,2.8l-65.7,38.8c-6.5,3.8-10.9,12.1-10.9,19.6V380h-10.5
	c-1.3,0-2.4,0-3,1s-0.6,2,0,3.3l5.6,11.7c0.8,1.7,0.8,4.5,0,6.2l-5.7,11.5c-0.6,1.2-0.6,2.7-0.1,3.6c0.6,1,1.7,1.7,3.1,1.7h10.6
	v17.8c0,7.6,4.4,15.9,10.8,19.6l65.9,38.8c3.1,1.8,7,2.8,11,2.8s7.9-1,11-2.8l66.1-38.8c6.4-3.8,11.1-12,11.1-19.6V419h10
	c1.4,0,2.5-0.8,3.1-1.7c0.6-0.9,0.5-2.2-0.1-3.5L-5.8,402.1z M-23.1,379.3L-23.1,379.3V419l0,0v17.8c0,4-2.8,9-6.1,11l-66,38.8
	c-1.6,1-3.8,1.5-6.2,1.5s-4.6-0.5-6.2-1.5l-65.6-38.8c-3.4-2-5.8-7-5.8-11V419l0,0v-39.7l0,0v-20.1c0-4,2.5-9,5.8-11l65.8-38.8
	c1.6-1,3.8-1.5,6.1-1.5c2.4,0,4.5,0.5,6.2,1.5l65.9,38.8c3.4,2,6.1,7,6.1,11V379.3z"/>
</svg>
