<?xml version="1.0" encoding="utf-8"?>
<!-- Generator: Adobe Illustrator 19.0.0, SVG Export Plug-In . SVG Version: 6.00 Build 0)  -->
<svg version="1.1" id="Layer_1" xmlns="http://www.w3.org/2000/svg" xmlns:xlink="http://www.w3.org/1999/xlink" x="0px" y="0px"
	 viewBox="-203 297 203.4 200" enable-background="new -203 297 203.4 200" xml:space="preserve">
<path id="XMLID_120_" fill="#FFE2A5" d="M-29.2,347.2L-95,308.4c-1.6-1-4-1.5-6-1.5l0,0c-3,0-4.8,0.5-6.4,1.5l-66.2,38.8
	c-3.4,2-6.4,7-6.4,11v20.1V418v17.8c0,4,3,9,6.3,11l66.1,38.8c1.6,1,3.9,1.5,6.3,1.5s4.6-0.5,6.3-1.5l65.9-38.8c3.4-2,6.2-7,6.2-11
	V418v-59.8C-23,354.3-25.8,349.2-29.2,347.2z M-31,418v17.8c0,0.8-1.4,2.9-2.1,3.3l-66.2,38.8c-0.2,0.1-1,0.3-2,0.3
	s-1.7-0.2-1.9-0.3l-66-38.8c-0.7-0.4-1.8-2.5-1.8-3.3V418v-39.7v-20.1c0-0.8,1.1-2.9,1.8-3.3l66.2-38.8c0.2-0.1,1-0.3,2-0.3l0,0
	c1,0,1.5,0.2,1.7,0.3l66.2,38.8c0.7,0.4,2.1,2.5,2.1,3.3V418z"/>
<path id="XMLID_101_" fill="#0674EC" d="M-5.7,401.1c-0.8-1.7-0.8-4.6,0-6.3L0,383c0.6-1.3,0.6-2.5,0-3.5s-1.7-1.5-3-1.5h-10v-19.8
	c0-7.6-4.7-15.8-11.2-19.6l-66-38.8c-3.1-1.8-7-2.8-11.1-2.8s-8,1-11.1,2.8l-65.7,38.8c-6.5,3.8-10.9,12.1-10.9,19.6V378h-10.5
	c-1.3,0-2.4,0.5-3,1.5s-0.6,2.3,0,3.6l5.7,11.8c0.8,1.7,0.8,4.6,0,6.2l-5.7,11.6c-0.6,1.2-0.6,2.7-0.1,3.6c0.6,1,1.7,1.7,3.1,1.7
	h10.5v17.8c0,7.6,4.4,15.9,10.8,19.6l65.9,38.8c3.1,1.8,7,2.8,11,2.8s7.9-1,11-2.8l66.1-38.8c6.4-3.8,11.1-12,11.1-19.6V418h10
	c1.4,0,2.5-0.8,3.1-1.7c0.6-0.9,0.5-2.2-0.1-3.5L-5.7,401.1z M-23,378.3L-23,378.3V418l0,0v17.8c0,4-2.8,9-6.1,11l-66,38.8
	c-1.6,1-3.8,1.5-6.2,1.5s-4.6-0.5-6.2-1.5l-66.1-38.8c-3.4-2-6.3-7-6.3-11V418l0,0v-39.7l0,0v-20.1c0-4,3-9,6.3-11l66.1-38.8
	c1.6-1,3.9-1.5,6.3-1.5s4.6,0.5,6.3,1.5l65.9,38.8c3.4,2,6.2,7,6.2,11v20.1H-23z"/>
<path id="XMLID_100_" fill="#FFFFFF" d="M-31,358.2v77.5c0,0.8-1.4,2.9-2.1,3.3l-66.2,38.8c-0.2,0.1-1,0.3-2,0.3s-1.7-0.2-1.9-0.3
	l-66-38.8c-0.7-0.4-1.8-2.5-1.8-3.3v-77.5c0-0.8,1.1-2.9,1.8-3.3l66-38.8c0.2-0.1,0.9-0.3,1.9-0.3s1.7,0.2,1.9,0.3l66.3,38.8
	C-32.4,355.4-31,357.4-31,358.2z"/>
<g id="XMLID_10_">
	<path id="XMLID_22_" fill="#212121" d="M-108.4,358.9l-19,33.7c-0.2,0.3-0.6,0.4-0.9,0.2l-2.6-1.6c-0.3-0.2-0.4-0.6-0.2-0.9
		l18.6-32.9C-111.4,358.4-109.9,358.9-108.4,358.9z"/>
	<path id="XMLID_14_" fill="#212121" d="M-71.6,391.3l-2.6,1.6c-0.3,0.2-0.7,0.1-0.9-0.2l-19-33.7c1.6,0,3-0.5,4.2-1.4l18.6,32.9
		C-71.2,390.8-71.3,391.1-71.6,391.3z"/>
</g>
<g id="XMLID_4_">
	<path id="XMLID_13_" fill="#673AB7" d="M-101.3,349.4c-0.8-3.2-3.7-5.5-7.1-5.5c-4,0-7.3,3.4-7.3,7.5c0,2.5,1.2,4.8,3.1,6.1
		c1.2,0.9,2.6,1.4,4.2,1.4l0,0c3.4,0,6.2-2.4,7-5.5c0.2-0.6,0.3-1.4,0.3-2.1C-101,350.7-101.1,350-101.3,349.4z M-108.3,355.3
		c-2.1,0-3.8-1.7-3.8-3.9c0-2.1,1.7-3.9,3.8-3.9c2.1,0,3.8,1.7,3.8,3.9C-104.6,353.5-106.2,355.3-108.3,355.3z"/>
	<path id="XMLID_26_" fill="#673AB7" d="M-94.2,343.9c-3.4,0-6.2,2.3-7.1,5.5c-0.2,0.6-0.3,1.3-0.3,2c0,0.7,0.1,1.4,0.3,2
		c0.9,3.2,3.7,5.6,7.1,5.6l0,0c1.6,0,3-0.6,4.2-1.4c1.9-1.4,3.1-3.6,3.1-6.2C-86.9,347.3-90.2,343.9-94.2,343.9z M-94.2,355.3
		c-2.1,0-3.8-1.7-3.8-3.9c0-2.1,1.7-3.9,3.8-3.9c2.1,0,3.8,1.7,3.8,3.9C-90.4,353.5-92.1,355.3-94.2,355.3z"/>
</g>
<g id="XMLID_1_">
	<path id="XMLID_38_" fill="#0674EC" d="M-57.7,348.5c-13.5,0-24.5-11-24.5-24.5s11-24.5,24.5-24.5s24.5,11,24.5,24.5
		S-44.1,348.5-57.7,348.5z"/>
	<path id="XMLID_35_" fill="#FFFFFF" d="M-57.7,302c12.1,0,22,9.9,22,22s-9.9,22-22,22s-22-9.9-22-22S-69.8,302-57.7,302 M-57.7,297
		c-14.9,0-27,12.1-27,27s12.1,27,27,27s27-12.1,27-27S-42.7,297-57.7,297L-57.7,297z"/>
</g>
<text id="XMLID_23_" transform="matrix(1 0 0 1 -63.937 335.8357)" fill="#FFFFFF" font-family="'Quicksand-Bold'" font-size="34px">1</text>
<g id="XMLID_24_">
	<g id="XMLID_2201_">
		<path id="XMLID_2202_" fill="#FEB71D" d="M-147.1,392.4l4.2,38.7c0.7,7.9,7.1,13.9,14.8,13.9h53.7c7.7,0,14.1-6,14.8-13.9
			l4.2-38.7C-55.4,392.4-147.1,392.4-147.1,392.4z M-126.7,439.3c0,1.2-0.9,2.1-2.1,2.1c-1.1,0-2.1-1-2.1-2.1v-34.2
			c0-1.2,0.9-2.1,2.1-2.1c1.1,0,2.1,1,2.1,2.1V439.3z M-115.8,439.3c0,1.2-0.9,2.1-2.1,2.1c-1.1,0-2.1-1-2.1-2.1v-34.2
			c0-1.2,0.9-2.1,2.1-2.1c1.1,0,2.1,1,2.1,2.1V439.3z M-105,439.3c0,1.2-0.9,2.1-2.1,2.1c-1.1,0-2.1-1-2.1-2.1v-34.2
			c0-1.2,0.9-2.1,2.1-2.1c1.1,0,2.1,1,2.1,2.1V439.3z M-94.1,439.3c0,1.2-0.9,2.1-2.1,2.1c-1.1,0-2.1-1-2.1-2.1v-34.2
			c0-1.2,0.9-2.1,2.1-2.1c1.1,0,2.1,1,2.1,2.1V439.3z M-83.2,439.3c0,1.2-0.9,2.1-2.1,2.1c-1.1,0-2.1-1-2.1-2.1v-34.2
			c0-1.2,0.9-2.1,2.1-2.1c1.1,0,2.1,1,2.1,2.1V439.3z M-72.3,439.3c0,1.2-0.9,2.1-2.1,2.1c-1.1,0-2.1-1-2.1-2.1v-34.2
			c0-1.2,0.9-2.1,2.1-2.1c1.1,0,2.1,1,2.1,2.1V439.3z"/>
	</g>
	<g id="XMLID_2195_">
		<path id="XMLID_33_" fill="#FEB71D" d="M-54,387.5v3.5h-95v-3.5c0-1,0.8-1.5,1.8-1.5h91.8C-54.4,386-54,386.5-54,387.5z"/>
	</g>
</g>
<path id="XMLID_34_" fill="#BF8916" d="M-54,391v5c0,0.4,0.1,1-0.2,1h-94.1c-0.4,0-0.7-0.6-0.7-1v-5H-54z"/>
</svg>
