<?xml version="1.0" encoding="utf-8"?>
<!-- Generator: Adobe Illustrator 19.0.0, SVG Export Plug-In . SVG Version: 6.00 Build 0)  -->
<svg version="1.1" id="Layer_1" xmlns="http://www.w3.org/2000/svg" xmlns:xlink="http://www.w3.org/1999/xlink" x="0px" y="0px"
	 viewBox="-203 297 203.4 200" enable-background="new -203 297 203.4 200" xml:space="preserve">
<path id="XMLID_166_" fill="#FFEDBE" d="M-29.2,347.2L-95,308.4c-1.6-1-4-1.5-6-1.5l0,0c-3,0-4.8,0.5-6.4,1.5l-66.2,38.8
	c-3.4,2-6.4,7-6.4,11v20.1V418v17.8c0,4,3,9,6.3,11l66.1,38.8c1.6,1,3.9,1.5,6.3,1.5s4.6-0.5,6.3-1.5l65.9-38.8c3.4-2,6.2-7,6.2-11
	V418v-59.8C-23,354.3-25.8,349.2-29.2,347.2z M-31,418v17.8c0,0.8-1.4,2.9-2.1,3.3l-66.2,38.8c-0.2,0.1-1,0.3-2,0.3
	s-1.7-0.2-1.9-0.3l-66-38.8c-0.7-0.4-1.8-2.5-1.8-3.3V418v-39.7v-20.1c0-0.8,1.1-2.9,1.8-3.3l66.2-38.8c0.2-0.1,1-0.3,2-0.3l0,0
	c1,0,1.5,0.2,1.7,0.3l66.2,38.8c0.7,0.4,2.1,2.5,2.1,3.3V418z"/>
<path id="XMLID_161_" fill="#0674EC" d="M-5.7,401.1c-0.8-1.7-0.8-4.6,0-6.3L0,383c0.6-1.3,0.6-2,0-3s-1.7-1-3-1h-10v-20.8
	c0-7.6-4.7-15.8-11.2-19.6l-66-38.8c-3.1-1.8-7-2.8-11.1-2.8s-8,1-11.1,2.8l-65.7,38.8c-6.5,3.8-10.9,12.1-10.9,19.6V379h-10.5
	c-1.3,0-2.4,0-3,1s-0.6,2,0,3.3l5.6,11.7c0.8,1.7,0.8,4.5,0,6.2l-5.7,11.5c-0.6,1.2-0.6,2.7-0.1,3.6c0.6,1,1.7,1.7,3.1,1.7h10.6
	v17.8c0,7.6,4.4,15.9,10.8,19.6l65.9,38.8c3.1,1.8,7,2.8,11,2.8s7.9-1,11-2.8l66.1-38.8c6.4-3.8,11.1-12,11.1-19.6V418h10
	c1.4,0,2.5-0.8,3.1-1.7c0.6-0.9,0.5-2.2-0.1-3.5L-5.7,401.1z M-23,378.3L-23,378.3V418l0,0v17.8c0,4-2.8,9-6.1,11l-66,38.8
	c-1.6,1-3.8,1.5-6.2,1.5s-4.6-0.5-6.2-1.5l-66.1-38.8c-3.4-2-6.3-7-6.3-11V418l0,0v-39.7l0,0v-20.1c0-4,3-9,6.3-11l66.1-38.8
	c1.6-1,3.9-1.5,6.3-1.5s4.6,0.5,6.3,1.5l65.9,38.8c3.4,2,6.2,7,6.2,11v20.1H-23z"/>
<path id="XMLID_160_" fill="#FFFFFF" d="M-31,358.2v77.5c0,0.8-1.4,2.9-2.1,3.3l-66.2,38.8c-0.2,0.1-1,0.3-2,0.3s-1.7-0.2-1.9-0.3
	l-66-38.8c-0.7-0.4-1.8-2.5-1.8-3.3v-77.5c0-0.8,1.1-2.9,1.8-3.3l66-38.8c0.2-0.1,0.9-0.3,1.9-0.3s1.7,0.2,1.9,0.3l66.3,38.8
	C-32.4,355.4-31,357.4-31,358.2z"/>
<polygon id="XMLID_2559_" fill="#FFD15C" points="-93.3,436.4 -110.5,436.4 -107.5,430 -105,424 -98.7,424 -96.2,430 "/>
<g id="XMLID_1_">
	<g id="XMLID_1839_">
		<path id="XMLID_1840_" fill="#713EB5" d="M-98.2,352c-2,0.6-2.5,1.1-3.1,3.2c-0.6-2.1-1.1-2.6-3.1-3.2c2-0.6,2.5-1.1,3.1-3.2
			C-100.7,350.9-100.2,351.4-98.2,352z"/>
	</g>
	<g id="XMLID_1837_">
		<path id="XMLID_1838_" fill="#713EB5" d="M-82.7,343.4c-2.2,0.7-2.7,1.2-3.4,3.5c-0.7-2.3-1.2-2.8-3.4-3.5
			c2.2-0.7,2.7-1.2,3.4-3.5C-85.4,342.1-84.9,342.7-82.7,343.4z"/>
	</g>
	<g id="XMLID_1821_">
		<path id="XMLID_1822_" fill="#713EB5" d="M-112.4,348.8c-3.3,1-4.1,1.8-5,5.2c-1-3.3-1.8-4.2-5-5.2c3.3-1,4.1-1.8,5-5.2
			C-116.5,347-115.7,347.8-112.4,348.8z"/>
	</g>
	<path id="XMLID_2558_" fill="#713EB5" d="M-82.3,436.4h-39.1c-2.2,0-3.9,1.8-3.9,4v13h46.7v-13C-78.4,438.2-80.2,436.4-82.3,436.4z
		"/>
</g>
<g id="XMLID_4_">
	<path id="XMLID_2557_" fill="#F8B64C" d="M-96.2,430c-1.6,0.8-3.1,1.6-4.7,2.2l-1,0.2l-1-0.4c-1.6-0.6-3.1-1.4-4.7-2.2l2.5-6h6.1
		L-96.2,430z"/>
	<g id="XMLID_2552_">
		<path id="XMLID_2554_" fill="#F8B64C" d="M-148.8,368.4v8.2c0,20,12.1,37.2,29.1,44.4c5.5,2.4,11.5,3.6,17.8,3.6
			s12.3-1.2,17.8-3.6c17-7.2,29.1-24.4,29.1-44.4v-8.2H-148.8z M-62.8,376.6c0,9.6-3.3,18.4-9,25.4c-7.2,8.8-18,14.6-30.1,14.6
			S-124.7,411-132,402c-5.5-6.8-9-15.8-9-25.4v-0.2h78v0.2H-62.8z"/>
		<path id="XMLID_2553_" fill="#F8B64C" d="M-71.4,357.4h-61c-1.4,0-2.3,1.2-2.3,2.4c0,1.4,1,2.6,2.3,2.6h61c1.4,0,2.3-1.2,2.3-2.4
			C-69,358.6-70,357.4-71.4,357.4z"/>
	</g>
</g>
<path id="XMLID_2562_" fill="#FFD15C" d="M-133,361v22.8c0,20.2,12.1,38.2,30.5,45.6C-84.1,422.2-72,404-72,384v-23H-133z
	 M-92.1,407.9l-9.6-7.3l-9.6,7.3l3.6-11.7l-9.8-7.2h12l3.7-11.7L-98,389h12l-9.6,7.3L-92.1,407.9z"/>
<rect id="XMLID_2549_" x="-132.4" y="362.4" fill="#FFC952" width="60.8" height="3"/>
</svg>
