<?xml version="1.0" encoding="utf-8"?>
<!-- Generator: Adobe Illustrator 19.0.0, SVG Export Plug-In . SVG Version: 6.00 Build 0)  -->
<svg version="1.1" id="Layer_1" xmlns="http://www.w3.org/2000/svg" xmlns:xlink="http://www.w3.org/1999/xlink" x="0px" y="0px"
	 viewBox="-203 297 203.4 200" enable-background="new -203 297 203.4 200" xml:space="preserve">
<path id="XMLID_201_" fill="#A8B8DE" d="M-29.2,347.2L-95,308.4c-1.6-1-4-1.5-6-1.5l0,0c-3,0-4.8,0.5-6.4,1.5l-66.2,38.8
	c-3.4,2-6.4,7-6.4,11v20.1V418v17.8c0,4,3,9,6.3,11l66.1,38.8c1.6,1,3.9,1.5,6.3,1.5s4.6-0.5,6.3-1.5l65.9-38.8c3.4-2,6.2-7,6.2-11
	V418v-59.8C-23,354.3-25.8,349.2-29.2,347.2z M-31,418v17.8c0,0.8-1.4,2.9-2.1,3.3l-66.2,38.8c-0.2,0.1-1,0.3-2,0.3
	s-1.7-0.2-1.9-0.3l-66-38.8c-0.7-0.4-1.8-2.5-1.8-3.3V418v-39.7v-20.1c0-0.8,1.1-2.9,1.8-3.3l66.2-38.8c0.2-0.1,1-0.3,2-0.3l0,0
	c1,0,1.5,0.2,1.7,0.3l66.2,38.8c0.7,0.4,2.1,2.5,2.1,3.3V418z"/>
<path id="XMLID_197_" fill="#0674EC" d="M-5.7,401.1c-0.8-1.7-0.8-4.6,0-6.3L0,383c0.6-1.3,0.6-2,0-3s-1.7-1-3-1h-10v-20.8
	c0-7.6-4.7-15.8-11.2-19.6l-66-38.8c-3.1-1.8-7-2.8-11.1-2.8s-8,1-11.1,2.8l-65.7,38.8c-6.5,3.8-10.9,12.1-10.9,19.6V379h-10.5
	c-1.3,0-2.4,0-3,1s-0.6,2,0,3.3l5.6,11.7c0.8,1.7,0.8,4.5,0,6.2l-5.7,11.5c-0.6,1.2-0.6,2.7-0.1,3.6c0.6,1,1.7,1.7,3.1,1.7h10.6
	v17.8c0,7.6,4.4,15.9,10.8,19.6l65.9,38.8c3.1,1.8,7,2.8,11,2.8s7.9-1,11-2.8l66.1-38.8c6.4-3.8,11.1-12,11.1-19.6V418h10
	c1.4,0,2.5-0.8,3.1-1.7c0.6-0.9,0.5-2.2-0.1-3.5L-5.7,401.1z M-23,378.3L-23,378.3V418l0,0v17.8c0,4-2.8,9-6.1,11l-66,38.8
	c-1.6,1-3.8,1.5-6.2,1.5s-4.6-0.5-6.2-1.5l-66.1-38.8c-3.4-2-6.3-7-6.3-11V418l0,0v-39.7l0,0v-20.1c0-4,3-9,6.3-11l66.1-38.8
	c1.6-1,3.9-1.5,6.3-1.5s4.6,0.5,6.3,1.5l65.9,38.8c3.4,2,6.2,7,6.2,11v20.1H-23z"/>
<path id="XMLID_196_" fill="#FFFFFF" d="M-31,358.2v77.5c0,0.8-1.4,2.9-2.1,3.3l-66.2,38.8c-0.2,0.1-1,0.3-2,0.3s-1.7-0.2-1.9-0.3
	l-66-38.8c-0.7-0.4-1.8-2.5-1.8-3.3v-77.5c0-0.8,1.1-2.9,1.8-3.3l66-38.8c0.2-0.1,0.9-0.3,1.9-0.3s1.7,0.2,1.9,0.3l66.3,38.8
	C-32.4,355.4-31,357.4-31,358.2z"/>
<path id="XMLID_1829_" fill="#FEB71D" d="M-102.5,391.1c-0.8-0.2-1.6-0.3-2.4-0.3c-5,0-9,4.1-9,9.2c0,5.1,4,9.2,9,9.2s9-4.1,9-9.2
	c0-0.9-0.1-1.7-0.3-2.5l25.1-25.7l4.1,0.6l12.7-13l-9.6-1.3l-1.3-9.8l-12.7,13l0.5,4.2L-102.5,391.1z"/>
<g id="XMLID_1819_">
	<path id="XMLID_1826_" fill="#0059AC" d="M-103.9,382.3l7.4-7.6c-9.1-3.2-19.6-1-26.9,6.4c-10.2,10.4-10.2,27.4,0,37.8
		c10.2,10.4,26.8,10.4,37,0c7.3-7.4,9.4-18.2,6.3-27.5l-7.4,7.6c0.3,4.9-1.4,9.8-5,13.6c-6.8,6.9-17.8,6.9-24.5,0s-6.8-18.2,0-25.1
		C-113.5,383.7-108.6,382-103.9,382.3L-103.9,382.3z"/>
	<path id="XMLID_1823_" fill="#0059AC" d="M-73.7,384.8c6.1,13.1,3.8,29.2-6.8,40.1c-13.5,13.8-35.3,13.8-48.8,0
		c-13.5-13.8-13.5-36.1,0-49.9c10.6-10.9,26.4-13.1,39.2-6.9l7.1-7.3c-16.8-9.8-38.6-7.4-53,7.3c-17.2,17.6-17.2,46.2,0,63.8
		s45.1,17.6,62.3,0c14.4-14.7,16.7-37.1,7.1-54.3L-73.7,384.8z"/>
</g>
</svg>
