<?xml version="1.0" encoding="utf-8"?>
<!-- Generator: Adobe Illustrator 19.0.0, SVG Export Plug-In . SVG Version: 6.00 Build 0)  -->
<svg version="1.1" id="Layer_1" xmlns="http://www.w3.org/2000/svg" xmlns:xlink="http://www.w3.org/1999/xlink" x="0px" y="0px"
	 viewBox="-203 297 203.4 200" enable-background="new -203 297 203.4 200" xml:space="preserve">
<path id="XMLID_12_" fill="#E7B8D6" d="M-27.2,347.2L-93,308.4c-1.6-1-4-1.5-6-1.5l0,0c-3,0-4.8,0.5-6.4,1.5l-66.2,38.8
	c-3.4,2-6.4,7-6.4,11v20.1V418v17.8c0,4,3,9,6.3,11l66.1,38.8c1.6,1,3.9,1.5,6.3,1.5s4.6-0.5,6.3-1.5l65.9-38.8c3.4-2,6.2-7,6.2-11
	V418v-59.8C-21,354.3-23.8,349.2-27.2,347.2z M-29,418v17.8c0,0.8-1.4,2.9-2.1,3.3l-66.2,38.8c-0.2,0.1-1,0.3-2,0.3
	s-1.7-0.2-1.9-0.3l-66-38.8c-0.7-0.4-1.8-2.5-1.8-3.3V418v-39.7v-20.1c0-0.8,1.1-2.9,1.8-3.3l66.2-38.8c0.2-0.1,1-0.3,2-0.3l0,0
	c1,0,1.5,0.2,1.7,0.3l66.2,38.8c0.7,0.4,2.1,2.5,2.1,3.3V418z"/>
<path id="XMLID_11_" fill="#0674EC" d="M-3.7,401.1c-0.8-1.7-0.8-4.6,0-6.3L2,383c0.6-1.3,0.6-2.5,0-3.5S0.3,378-1,378h-10v-19.8
	c0-7.6-4.7-15.8-11.2-19.6l-66-38.8c-3.1-1.8-7-2.8-11.1-2.8s-8,1-11.1,2.8l-65.7,38.8c-6.5,3.8-10.9,12.1-10.9,19.6V378h-10.5
	c-1.3,0-2.4,0.5-3,1.5s-0.6,2.3,0,3.6l5.7,11.8c0.8,1.7,0.8,4.6,0,6.2l-5.7,11.6c-0.6,1.2-0.6,2.7-0.1,3.6c0.6,1,1.7,1.7,3.1,1.7
	h10.5v17.8c0,7.6,4.4,15.9,10.8,19.6l65.9,38.8c3.1,1.8,7,2.8,11,2.8s7.9-1,11-2.8l66.1-38.8c6.4-3.8,11.1-12,11.1-19.6V418h10
	c1.4,0,2.5-0.8,3.1-1.7c0.6-0.9,0.5-2.2-0.1-3.5L-3.7,401.1z M-21,378.3L-21,378.3V418l0,0v17.8c0,4-2.8,9-6.1,11l-66,38.8
	c-1.6,1-3.8,1.5-6.2,1.5s-4.6-0.5-6.2-1.5l-66.1-38.8c-3.4-2-6.3-7-6.3-11V418l0,0v-39.7l0,0v-20.1c0-4,3-9,6.3-11l66.1-38.8
	c1.6-1,3.9-1.5,6.3-1.5s4.6,0.5,6.3,1.5l65.9,38.8c3.4,2,6.2,7,6.2,11v20.1H-21z"/>
<path id="XMLID_10_" fill="#FFFFFF" d="M-29,358.2v77.5c0,0.8-1.4,2.9-2.1,3.3l-66.2,38.8c-0.2,0.1-1,0.3-2,0.3s-1.7-0.2-1.9-0.3
	l-66-38.8c-0.7-0.4-1.8-2.5-1.8-3.3v-77.5c0-0.8,1.1-2.9,1.8-3.3l66-38.8c0.2-0.1,0.9-0.3,1.9-0.3s1.7,0.2,1.9,0.3l66.3,38.8
	C-30.4,355.4-29,357.4-29,358.2z"/>
<g id="XMLID_7_">
	<path id="XMLID_9_" fill="#F173AC" d="M-120.5,397.6c-6.4,0-19.2-13.2-24.2-18.7c1.7-0.8,2.9-2.6,2.9-4.6c0-2.8-2.2-5.1-5-5.1
		s-5,2.3-5,5.1c0,2.8,2.2,5.1,5,5.1c0.3,0,0.6,0,0.9-0.1l15.3,47.5h31v-66.3C-99.6,360.5-105.8,397.6-120.5,397.6z"/>
	<rect id="XMLID_8_" x="-130.6" y="429.1" fill="#F173AC" width="31" height="12.1"/>
</g>
<g id="XMLID_2_">
	<path id="XMLID_6_" fill="#D058A0" d="M-52.4,369.2c-2.8,0-5,2.3-5,5.1c0,2.1,1.2,3.8,2.9,4.6c-5.1,5.5-17.9,18.7-24.2,18.7
		c-14.6,0-20.8-37.1-20.8-37.1v66.3h31l15.3-47.5c0.3,0.1,0.6,0.1,0.9,0.1c2.8,0,5-2.3,5-5.1C-47.4,371.5-49.6,369.2-52.4,369.2z"/>
	<ellipse id="XMLID_5_" fill="#D058A0" cx="-99.6" cy="358.3" rx="5" ry="5.1"/>
	<rect id="XMLID_3_" x="-99.6" y="429.1" fill="#D058A0" width="31" height="12.1"/>
</g>
</svg>
