<?xml version="1.0" encoding="utf-8"?>
<!-- Generator: Adobe Illustrator 19.0.0, SVG Export Plug-In . SVG Version: 6.00 Build 0)  -->
<svg version="1.1" id="Layer_1" xmlns="http://www.w3.org/2000/svg" xmlns:xlink="http://www.w3.org/1999/xlink" x="0px" y="0px"
	 viewBox="-203 297 203.4 200" enable-background="new -203 297 203.4 200" xml:space="preserve">
<path id="XMLID_192_" fill="#FFFFFF" d="M-31,358.2v77.5c0,0.8-1.4,2.9-2.1,3.3l-66.2,38.8c-0.2,0.1-1,0.3-2,0.3s-1.7-0.2-1.9-0.3
	l-66-38.8c-0.7-0.4-1.8-2.5-1.8-3.3v-77.5c0-0.8,1.1-2.9,1.8-3.3l66-38.8c0.2-0.1,0.9-0.3,1.9-0.3s1.7,0.2,1.9,0.3l66.3,38.8
	C-32.4,355.4-31,357.4-31,358.2z"/>
<path id="XMLID_48_" fill="#B4E9FB" d="M-29.2,347.2L-95,308.4c-1.6-1-4-1.5-6-1.5l0,0c-3,0-4.8,0.5-6.4,1.5l-66.2,38.8
	c-3.4,2-6.4,7-6.4,11v20.1V418v17.8c0,4,3,9,6.3,11l66.1,38.8c1.6,1,3.9,1.5,6.3,1.5s4.6-0.5,6.3-1.5l65.9-38.8c3.4-2,6.2-7,6.2-11
	V418v-59.8C-23,354.3-25.8,349.2-29.2,347.2z M-31,418v17.8c0,0.8-1.4,2.9-2.1,3.3l-66.2,38.8c-0.2,0.1-1,0.3-2,0.3
	s-1.7-0.2-1.9-0.3l-66-38.8c-0.7-0.4-1.8-2.5-1.8-3.3V418v-39.7v-20.1c0-0.8,1.1-2.9,1.8-3.3l66.2-38.8c0.2-0.1,1-0.3,2-0.3l0,0
	c1,0,1.5,0.2,1.7,0.3l66.2,38.8c0.7,0.4,2.1,2.5,2.1,3.3V418z"/>
<path id="XMLID_182_" fill="#0674EC" d="M-5.7,401.1c-0.8-1.7-0.8-4.6,0-6.3L0,383c0.6-1.3,0.6-2.5,0-3.5s-1.7-1.5-3-1.5h-10v-19.8
	c0-7.6-4.7-15.8-11.2-19.6l-66-38.8c-3.1-1.8-7-2.8-11.1-2.8s-8,1-11.1,2.8l-65.7,38.8c-6.5,3.8-10.9,12.1-10.9,19.6V378h-10.5
	c-1.3,0-2.4,0.5-3,1.5s-0.6,2.3,0,3.6l5.7,11.8c0.8,1.7,0.8,4.6,0,6.2l-5.7,11.6c-0.6,1.2-0.6,2.7-0.1,3.6c0.6,1,1.7,1.7,3.1,1.7
	h10.5v17.8c0,7.6,4.4,15.9,10.8,19.6l65.9,38.8c3.1,1.8,7,2.8,11,2.8s7.9-1,11-2.8l66.1-38.8c6.4-3.8,11.1-12,11.1-19.6V418h10
	c1.4,0,2.5-0.8,3.1-1.7c0.6-0.9,0.5-2.2-0.1-3.5L-5.7,401.1z M-23,378.3L-23,378.3V418l0,0v17.8c0,4-2.8,9-6.1,11l-66,38.8
	c-1.6,1-3.8,1.5-6.2,1.5s-4.6-0.5-6.2-1.5l-66.1-38.8c-3.4-2-6.3-7-6.3-11V418l0,0v-39.7l0,0v-20.1c0-4,3-9,6.3-11l66.1-38.8
	c1.6-1,3.9-1.5,6.3-1.5s4.6,0.5,6.3,1.5l65.9,38.8c3.4,2,6.2,7,6.2,11v20.1H-23z"/>
<g id="XMLID_175_">
	<path id="XMLID_37_" fill="#00A5E3" d="M-74.7,451.5c0,2.2-1.4,3.2-3.1,2.3l-20.5-13.4c-1.7-0.9-4.4-1-6.1,0l-20.9,13.5
		c-1.7,0.9-3.1-0.1-3.1-2.3v-37.3c0-2.2,1.5-4,3.4-4h46.9c1.9,0,3.4,1.8,3.4,4V451.5z"/>
</g>
<g id="XMLID_157_">
	<g id="XMLID_171_">
		<path id="XMLID_38_" fill="#44C8F5" d="M-100.3,368.1c-3.6,0-6.6,3-6.6,6.8c0,3.7,3,6.8,6.6,6.8s6.6-3,6.6-6.8
			C-93.7,371.1-96.6,368.1-100.3,368.1z"/>
	</g>
	<g id="XMLID_159_">
		<g id="XMLID_58_">
			<path id="XMLID_59_" fill="#44C8F5" d="M-101.4,340.8c-23.9,0-43.3,19.9-43.3,44.3s19.4,44.3,43.3,44.3s43.3-19.9,43.3-44.3
				C-58.1,360.7-77.4,340.8-101.4,340.8z M-79.5,407.6h-7.9v-3.3c0-8.7-6.7-15.5-14.9-15.5s-14.9,6.8-14.9,15.5v3.3h-6.9v-3.3
				c0-5.6,2.7-11.3,7.3-16c1.4-1.5,3.7-2.9,6.3-4.1c-2.2-2.5-3.5-5.8-3.5-9.3c0-7.7,6.1-14,13.6-14s13.5,6.3,13.5,14
				c0,3.4-1.3,6.7-3.6,9.3c1.8,1,3.4,2.3,5.1,4.1c3.9,4,5.8,9.6,5.8,16L-79.5,407.6L-79.5,407.6z"/>
		</g>
	</g>
</g>
</svg>
