<?xml version="1.0" encoding="utf-8"?>
<!-- Generator: Adobe Illustrator 19.0.0, SVG Export Plug-In . SVG Version: 6.00 Build 0)  -->
<svg version="1.1" id="Layer_1" xmlns="http://www.w3.org/2000/svg" xmlns:xlink="http://www.w3.org/1999/xlink" x="0px" y="0px"
	 viewBox="-203 297 203.4 200" enable-background="new -203 297 203.4 200" xml:space="preserve">
<path id="XMLID_36_" fill="#FFFFFF" d="M-31,358.2v77.5c0,0.8-1.4,2.9-2.1,3.3l-66.2,38.8c-0.2,0.1-1,0.3-2,0.3s-1.7-0.2-1.9-0.3
	l-66-38.8c-0.7-0.4-1.8-2.5-1.8-3.3v-77.5c0-0.8,1.1-2.9,1.8-3.3l66-38.8c0.2-0.1,0.9-0.3,1.9-0.3s1.7,0.2,1.9,0.3l66.3,38.8
	C-32.4,355.4-31,357.4-31,358.2z"/>
<path id="XMLID_111_" fill="#0674EC" d="M-5.7,401.1c-0.8-1.7-0.8-4.6,0-6.3L0,383c0.6-1.3,0.6-2.5,0-3.5s-1.7-1.5-3-1.5h-10v-19.8
	c0-7.6-4.7-15.8-11.2-19.6l-66-38.8c-3.1-1.8-7-2.8-11.1-2.8s-8,1-11.1,2.8l-65.7,38.8c-6.5,3.8-10.9,12.1-10.9,19.6V378h-10.5
	c-1.3,0-2.4,0.5-3,1.5s-0.6,2.3,0,3.6l5.7,11.8c0.8,1.7,0.8,4.6,0,6.2l-5.7,11.6c-0.6,1.2-0.6,2.7-0.1,3.6c0.6,1,1.7,1.7,3.1,1.7
	h10.5v17.8c0,7.6,4.4,15.9,10.8,19.6l65.9,38.8c3.1,1.8,7,2.8,11,2.8s7.9-1,11-2.8l66.1-38.8c6.4-3.8,11.1-12,11.1-19.6V418h10
	c1.4,0,2.5-0.8,3.1-1.7c0.6-0.9,0.5-2.3-0.1-3.5L-5.7,401.1z M-23,435.8c0,4-2.8,9-6.1,11l-66,38.8c-1.6,1-3.8,1.5-6.2,1.5
	s-4.6-0.5-6.2-1.5l-66.1-38.8c-3.4-2-6.3-7-6.3-11v-77.6c0-4,3-9,6.3-11l66.2-38.8c1.6-1,3.4-1.5,6.4-1.5l0,0c2,0,4.4,0.5,6.1,1.5
	l65.9,38.8c2.1,1.2,3.9,3.7,5,6.3c0.7,1.6,1,3.2,1,4.7V435.8z"/>
<g id="XMLID_1_">
	<path id="XMLID_35_" fill="#4D2C89" d="M-74.5,451.5c0,2.2-1.4,3.2-3.1,2.3L-98,440.4c-1.7-0.9-4.4-1-6.1,0l-20.9,13.4
		c-1.7,0.9-3.1-0.1-3.1-2.3v-37.3c0-2.2,1.5-4,3.4-4h46.9c1.9,0,3.4,1.8,3.4,4v37.3H-74.5z"/>
</g>
<ellipse id="XMLID_46_" fill="#673AB7" cx="-101.3" cy="385.1" rx="43.3" ry="44.3"/>
<path id="XMLID_72_" fill="#C2B0E2" d="M-24,353.5c-1.1-2.6-3-5.1-5.1-6.3L-95,308.4c-1.6-1-4-1.5-6-1.5l0,0c-3,0-4.8,0.5-6.4,1.5
	l-66.2,38.8c-3.4,2-6.4,7-6.4,11v77.5c0,4,3,9,6.3,11l66.1,38.8c1.6,1,3.9,1.5,6.3,1.5s4.6-0.5,6.3-1.5l65.9-38.8
	c3.4-2,6.2-7,6.2-11v-77.5C-23,356.7-23.3,355.1-24,353.5z M-31,435.8c0,0.8-1.4,2.9-2.1,3.3l-66.2,38.8c-0.2,0.1-1,0.3-2,0.3
	s-1.7-0.2-1.9-0.3l-66-38.8c-0.7-0.4-1.8-2.5-1.8-3.3v-77.6c0-0.8,1.1-2.9,1.8-3.3l66.2-38.7c0.2-0.1,1-0.3,2-0.3l0,0
	c1,0,1.5,0.2,1.7,0.3l66.2,38.8c0.7,0.4,2.1,2.5,2.1,3.3V435.8z"/>
<g id="XMLID_60_">
	<path id="XMLID_203_" fill="#FFFFFF" d="M-81.3,357h-38.8c-2.5,0-2.5,2.7-2.5,2.7c-0.1,0.2,0,48.3,0,48.3c0,3.1,1.4,4,2.5,4h38.8
		c1.6,0,1.3-1.6,1.3-1.7v-51.7l0,0C-80,358.5-80.1,357-81.3,357z M-116,365h29v11h-29V365z M-86.6,405H-115c-0.7,0-1.3-0.8-1.3-1.5
		s0.6-1.5,1.3-1.5h28.3c0.7,0,1.3,0.8,1.3,1.5C-85.4,404.2-85.9,405-86.6,405z M-86.6,398H-115c-0.7,0-1.3-0.8-1.3-1.5
		s0.6-1.5,1.3-1.5h28.3c0.7,0,1.3,0.8,1.3,1.5C-85.4,397.2-85.9,398-86.6,398z M-86.6,391H-115c-0.7,0-1.3-0.4-1.3-1.5
		s0.6-1.5,1.3-1.5h28.3c0.7,0,1.3,0.4,1.3,1.5C-85.4,390.6-85.9,391-86.6,391z M-86.6,385H-115c-0.7,0-1.3-0.6-1.3-1.5
		s0.6-1.5,1.3-1.5h28.3c0.7,0,1.3,0.6,1.3,1.5C-85.4,384.4-85.9,385-86.6,385z"/>
	<ellipse id="XMLID_105_" fill="#FFFFFF" cx="-97.9" cy="370.3" rx="2.6" ry="2.6"/>
	<ellipse id="XMLID_104_" fill="#FFFFFF" cx="-104" cy="370.3" rx="2.6" ry="2.6"/>
	<ellipse id="XMLID_103_" fill="#FFFFFF" cx="-110.1" cy="370.3" rx="2.6" ry="2.6"/>
</g>
</svg>
