<?xml version="1.0" encoding="utf-8"?>
<!-- Generator: Adobe Illustrator 19.0.0, SVG Export Plug-In . SVG Version: 6.00 Build 0)  -->
<svg version="1.1" id="Layer_1" xmlns="http://www.w3.org/2000/svg" xmlns:xlink="http://www.w3.org/1999/xlink" x="0px" y="0px"
	 viewBox="-203 297 203.4 200" enable-background="new -203 297 203.4 200" xml:space="preserve">
<path id="XMLID_128_" fill="#C2B0E2" d="M-29.2,347.2L-95,308.4c-1.6-1-4-1.5-6-1.5l0,0c-3,0-4.8,0.5-6.4,1.5l-66.2,38.8
	c-3.4,2-6.4,7-6.4,11v20.1V418v17.8c0,4,3,9,6.3,11l66.1,38.8c1.6,1,3.9,1.5,6.3,1.5s4.6-0.5,6.3-1.5l65.9-38.8c3.4-2,6.2-7,6.2-11
	V418v-59.8C-23,354.3-25.8,349.2-29.2,347.2z M-31,418v17.8c0,0.8-1.4,2.9-2.1,3.3l-66.2,38.8c-0.2,0.1-1,0.3-2,0.3
	s-1.7-0.2-1.9-0.3l-66-38.8c-0.7-0.4-1.8-2.5-1.8-3.3V418v-39.7v-20.1c0-0.8,1.1-2.9,1.8-3.3l66.2-38.8c0.2-0.1,1-0.3,2-0.3l0,0
	c1,0,1.5,0.2,1.7,0.3l66.2,38.8c0.7,0.4,2.1,2.5,2.1,3.3V418z"/>
<path id="XMLID_107_" fill="#0674EC" d="M-5.7,401.1c-0.8-1.7-0.8-4.6,0-6.3L0,383c0.6-1.3,0.6-2,0-3s-1.7-1-3-1h-10v-20.8
	c0-7.6-4.7-15.8-11.2-19.6l-66-38.8c-3.1-1.8-7-2.8-11.1-2.8s-8,1-11.1,2.8l-65.7,38.8c-6.5,3.8-10.9,12.1-10.9,19.6V379h-10.5
	c-1.3,0-2.4,0-3,1s-0.6,2,0,3.3l5.6,11.7c0.8,1.7,0.8,4.5,0,6.2l-5.7,11.5c-0.6,1.2-0.6,2.7-0.1,3.6c0.6,1,1.7,1.7,3.1,1.7h10.6
	v17.8c0,7.6,4.4,15.9,10.8,19.6l65.9,38.8c3.1,1.8,7,2.8,11,2.8s7.9-1,11-2.8l66.1-38.8c6.4-3.8,11.1-12,11.1-19.6V418h10
	c1.4,0,2.5-0.8,3.1-1.7c0.6-0.9,0.5-2.2-0.1-3.5L-5.7,401.1z M-23,378.3L-23,378.3V418l0,0v17.8c0,4-2.8,9-6.1,11l-66,38.8
	c-1.6,1-3.8,1.5-6.2,1.5s-4.6-0.5-6.2-1.5l-66.1-38.8c-3.4-2-6.3-7-6.3-11V418l0,0v-39.7l0,0v-20.1c0-4,3-9,6.3-11l66.1-38.8
	c1.6-1,3.9-1.5,6.3-1.5s4.6,0.5,6.3,1.5l65.9,38.8c3.4,2,6.2,7,6.2,11v20.1H-23z"/>
<path id="XMLID_99_" fill="#FFFFFF" d="M-31,358.2v77.5c0,0.8-1.4,2.9-2.1,3.3l-66.2,38.8c-0.2,0.1-1,0.3-2,0.3s-1.7-0.2-1.9-0.3
	l-66-38.8c-0.7-0.4-1.8-2.5-1.8-3.3v-77.5c0-0.8,1.1-2.9,1.8-3.3l66-38.8c0.2-0.1,0.9-0.3,1.9-0.3s1.7,0.2,1.9,0.3l66.3,38.8
	C-32.4,355.4-31,357.4-31,358.2z"/>
<g id="XMLID_1_">
	<path id="XMLID_25_" fill="#FFC107" d="M-57,359.8V391c0,4-3.2,6.9-7,6.9h-3v17.2c0,0.8-1,1-1.5,0.4L-86.3,398H-88v-11.8
		c0.3,0.5,0.9,0.8,1.5,0.8h21.9c1,0,1.9-1,1.9-2s-0.8-2-1.9-2h-21.9c-0.6,0-1.1,0.3-1.5,0.8V378h23.4c1,0,1.9-1,1.9-2s-0.8-2-1.9-2
		H-88v-5.2c0-0.3,0-0.6,0-0.8h23.4c1,0,1.9-1,1.9-2s-0.8-2-1.9-2h-25.5c-1.4-1.3-3.2-2-5.2-2H-130v-2.2c0-4,3.4-6.8,7.2-6.8H-64
		C-60.2,353-57,355.9-57,359.8z"/>
	<g id="XMLID_2570_">
		<path id="XMLID_2571_" fill="#FFC107" d="M-125.3,444.5l-4.8-2.5c-0.1,0-0.2,0-0.3,0l-4.7,2.6c-0.2,0.1-0.5-0.1-0.5-0.3l0.8-5.4
			c0-0.1,0-0.2-0.1-0.3l-3.9-3.8c-0.2-0.2-0.1-0.5,0.2-0.6l5.3-0.9c0.1,0,0.2-0.1,0.2-0.2l2.3-4.9c0.1-0.2,0.4-0.2,0.6,0l2.4,4.9
			c0,0.1,0.1,0.2,0.2,0.2l5.3,0.7c0.3,0,0.4,0.4,0.2,0.6l-3.8,3.9c-0.1,0.1-0.1,0.2-0.1,0.3l1,5.4
			C-124.8,444.4-125.1,444.6-125.3,444.5z"/>
	</g>
	<g id="XMLID_2568_">
		<path id="XMLID_2569_" fill="#FFC107" d="M-106.1,444.5l-4.8-2.5c-0.1,0-0.2,0-0.3,0l-4.7,2.6c-0.2,0.1-0.5-0.1-0.5-0.3l0.8-5.4
			c0-0.1,0-0.2-0.1-0.3l-3.9-3.8c-0.2-0.2-0.1-0.5,0.2-0.6l5.3-0.9c0.1,0,0.2-0.1,0.2-0.2l2.3-4.9c0.1-0.2,0.4-0.2,0.6,0l2.4,4.9
			c0,0.1,0.1,0.2,0.2,0.2l5.3,0.7c0.3,0,0.4,0.4,0.2,0.6l-3.8,3.9c-0.1,0.1-0.1,0.2-0.1,0.3l1,5.4
			C-105.6,444.4-105.9,444.6-106.1,444.5z"/>
	</g>
	<g id="XMLID_2566_">
		<path id="XMLID_2567_" fill="#FFC107" d="M-86.9,444.5l-4.8-2.5c-0.1,0-0.2,0-0.3,0l-4.7,2.6c-0.2,0.1-0.5-0.1-0.5-0.3l0.8-5.4
			c0-0.1,0-0.2-0.1-0.3l-3.9-3.8c-0.2-0.2-0.1-0.5,0.2-0.6l5.3-0.9c0.1,0,0.2-0.1,0.2-0.2l2.3-4.9c0.1-0.2,0.4-0.2,0.6,0l2.4,4.9
			c0,0.1,0.1,0.2,0.2,0.2l5.3,0.7c0.3,0,0.4,0.4,0.2,0.6l-3.8,3.9c-0.1,0.1-0.1,0.2-0.1,0.3l1,5.4
			C-86.4,444.4-86.6,444.6-86.9,444.5z"/>
	</g>
	<g id="XMLID_2564_">
		<path id="XMLID_2565_" fill="#FFC107" d="M-67.7,444.5l-4.8-2.5c-0.1,0-0.2,0-0.3,0l-4.7,2.6c-0.2,0.1-0.5-0.1-0.5-0.3l0.8-5.4
			c0-0.1,0-0.2-0.1-0.3l-3.9-3.8c-0.2-0.2-0.1-0.5,0.2-0.6l5.3-0.9c0.1,0,0.2-0.1,0.2-0.2l2.3-4.9c0.1-0.2,0.4-0.2,0.6,0l2.4,4.9
			c0,0.1,0.1,0.2,0.2,0.2l5.3,0.7c0.3,0,0.4,0.4,0.2,0.6l-3.8,3.9c-0.1,0.1-0.1,0.2-0.1,0.3l1,5.4
			C-67.2,444.4-67.4,444.6-67.7,444.5z"/>
	</g>
</g>
<path id="XMLID_14_" fill="#673AB7" d="M-88,368c-0.2-1.6-1-3-2.1-4c-1.4-1.3-3.2-2-5.2-2h-43.2c-3.9,0-6.5,2.9-6.5,6.8V400
	c0,3.9,2.6,6.9,6.5,6.9h3.5v17.2c0,0.8,0.8,1,1.2,0.4l17.6-17.5h20.8c3.9,0,7.4-3,7.4-6.9v-31.3C-88,368.5-88,368.3-88,368z
	 M-133.8,385c-1,0-1.9-1-1.9-2s0.8-2,1.9-2h33.8c1,0,1.9,1,1.9,2s-0.8,2-1.9,2H-133.8z M-123.8,392c0-1,0.8-2,1.8-2h22
	c1,0,1.9,1,1.9,2s-0.8,2-1.9,2h-22C-123,394-123.8,393-123.8,392z M-100,375h-33.8c-1,0-1.9-0.5-1.9-1.5s0.8-1.5,1.9-1.5h33.8
	c1,0,1.9,0.5,1.9,1.5c0,0.2,0,0.3-0.1,0.5C-98.5,374.7-99.2,375-100,375z"/>
</svg>
