<?xml version="1.0" encoding="utf-8"?>
<!-- Generator: Adobe Illustrator 19.0.0, SVG Export Plug-In . SVG Version: 6.00 Build 0)  -->
<svg version="1.1" id="Layer_1" xmlns="http://www.w3.org/2000/svg" xmlns:xlink="http://www.w3.org/1999/xlink" x="0px" y="0px"
	 viewBox="-203 297 203.4 200" enable-background="new -203 297 203.4 200" xml:space="preserve">
<path id="XMLID_47_" fill="#FDBCBC" d="M-27.1,347.2l-66-38.8c-1.6-1-4.3-1.5-6.2-1.5l0,0c-2.4,0-4.6,0.5-6.2,1.5l-66,38.8
	c-3.4,2-6.2,7-6.2,11v20.1V418v17.8c0,4,2.9,9,6.2,11l66,38.8c1.6,1,3.9,1.5,6.2,1.5c2.4,0,4.6-0.5,6.2-1.5l66-38.8
	c3.4-2,6.2-7,6.2-11V418v-59.8C-20.8,354.3-23.7,349.2-27.1,347.2z M-29.5,418v17.8c0,0.8-1.2,2.9-1.9,3.3l-66,38.8
	c-0.2,0.1-0.9,0.3-1.9,0.3s-1.7-0.2-1.9-0.3l-66-38.8c-0.7-0.4-1.9-2.5-1.9-3.3V418v-39.7v-20.1c0-0.8,1.2-2.9,1.9-3.3l66-38.8
	c0.2-0.1,0.9-0.3,1.9-0.3l0,0c1,0,1.7,0.2,1.9,0.3l66.1,38.8c0.7,0.4,1.9,2.5,1.9,3.3V418H-29.5z"/>
<path id="XMLID_1_" fill="#0674EC" d="M-3.7,401.1c-0.8-1.7-0.8-4.6,0-6.3L2,383c0.6-1.3,0.6-2.5,0-3.5S0.3,378-1,378h-10v-19.8
	c0-7.6-4.7-15.8-11.2-19.6l-66-38.8c-3.1-1.8-7-2.8-11.1-2.8s-8,1-11.1,2.8l-65.7,38.8c-6.5,3.8-10.9,12.1-10.9,19.6V378h-10.5
	c-1.3,0-2.4,0.5-3,1.5s-0.6,2.3,0,3.6l5.7,11.8c0.8,1.7,0.8,4.6,0,6.2l-5.7,11.6c-0.6,1.2-0.6,2.7-0.1,3.6c0.6,1,1.7,1.7,3.1,1.7
	h10.5v17.8c0,7.6,4.4,15.9,10.8,19.6l65.9,38.8c3.1,1.8,7,2.8,11,2.8s7.9-1,11-2.8l66.1-38.8c6.4-3.8,11.1-12,11.1-19.6V418h10
	c1.4,0,2.5-0.8,3.1-1.7c0.6-0.9,0.5-2.2-0.1-3.5L-3.7,401.1z M-21,378.3L-21,378.3V418l0,0v17.8c0,4-2.8,9-6.1,11l-66,38.8
	c-1.6,1-3.8,1.5-6.2,1.5s-4.6-0.5-6.2-1.5l-66.1-38.8c-3.4-2-6.3-7-6.3-11V418l0,0v-39.7l0,0v-20.1c0-4,3-9,6.3-11l66.1-38.8
	c1.6-1,3.9-1.5,6.3-1.5s4.6,0.5,6.3,1.5l65.9,38.8c3.4,2,6.2,7,6.2,11v20.1H-21z"/>
<path id="XMLID_33_" fill="#FFFFFF" d="M-29,358.2v77.5c0,0.8-1.4,2.9-2.1,3.3l-66.2,38.8c-0.2,0.1-1,0.3-2,0.3s-1.7-0.2-1.9-0.3
	l-66-38.8c-0.7-0.4-1.8-2.5-1.8-3.3v-77.5c0-0.8,1.1-2.9,1.8-3.3l66-38.8c0.2-0.1,0.9-0.3,1.9-0.3s1.7,0.2,1.9,0.3l66.3,38.8
	C-30.4,355.4-29,357.4-29,358.2z"/>
<path id="XMLID_3_" fill="#F95858" d="M-61.1,436.1c-0.3,0.7-0.3,1.4-0.5,2c-1.1,2.8-2.9,4.7-5.7,5.6c-1.1,0.4-2.2,0.4-3.4,0.4
	c-0.2,0-0.4,0-0.6,0.2c-0.6,0.6-1.2,1.2-1.9,1.8c-1.4,1.1-3,2-4.7,2.5c-0.5,0.1-0.9,0.2-1.4,0.2s-1,0-1.5,0.2c-0.2,0-0.3,0-0.5,0
	c-1.8-0.2-9.3,0-11.2-0.1c-0.5,0-1.1-0.1-1.6,0.1c-6.8,0-19.2,0-26,0c-1.7,0-3.3,0-5,0c-0.4-0.2-0.8-0.2-1.3-0.2
	c-3.7-0.7-6.8-2.6-9.1-5.6c-0.4-0.5-0.8-1.1-1.1-1.7c-0.2-0.3-0.2-0.5,0.3-0.5c0.1,0,0.2,0,0.3,0c11.1,0,27.9,0,39,0
	c4.6,0,14.9,0,19.6,0c0.2,0,0.5,0.1,0.6-0.1c0.1-0.2-0.2-0.3-0.3-0.5c-3.1-4.7-1.5-10.8,3.4-13.3c4.6-2.4,10.2-0.2,12.2,4.7
	c0.2,0.6,0.4,1.1,0.5,1.8c0,0.2-0.1,0.5,0.1,0.6C-61.1,434.8-61.1,435.5-61.1,436.1z M-70,440.8c3.1,0,5.6-2.5,5.6-5.6
	c0-3.1-2.5-5.7-5.6-5.7s-5.5,2.5-5.6,5.7C-75.5,438.3-72.9,440.8-70,440.8z"/>
<path id="XMLID_2_" fill="#FEC00F" d="M-98.9,351.4c0.3,1,0.9,1.8,1.4,2.6c1.8,2.9,3.3,5.8,3.1,9.2c-0.1,2.4-0.8,4.6-2.6,6.5
	c-1,1-2.4,1.7-3.8,2c1.6-1.7,1.8-3.7,1.5-5.7c-0.2-1.5-0.9-2.8-1.6-4.1c-0.6-1.1-1.2-2.1-1.9-3.2c-0.1-0.1-0.1-0.3-0.3-0.3
	c-0.2,0-0.3,0.2-0.4,0.3c-1.2,1.8-2.3,3.5-3,5.5c-0.6,1.9-0.9,3.7-0.2,5.6c0.3,0.7,0.8,1.2,1.4,1.8c-1.9-0.6-3.3-1.5-4.4-2.8
	c-0.8-0.9-1.3-1.9-1.7-3c-0.2-0.6-0.2-1.1-0.2-1.7c-0.2-2.5,0.3-4.9,1.1-7.3c0.4-1.5,1.1-2.9,1.6-4.4c0.4-1,1-2,1.6-3
	c1.9-3.4,4.2-6.5,7.5-8.9c1.1-0.9,2.4-1.5,4-1.7c0.2,0,0.5-0.1,0.7,0.1c-3.1,1.8-4.6,4.4-4.9,7.5c-0.2,0.5-0.1,1,0,1.5
	C-99.8,349.1-99.6,350.3-98.9,351.4z"/>
<text transform="matrix(0.9837 0 0 1 -126.2778 435.79)" fill="#F95858" font-family="'ArialMT'" font-size="84.7603px">2</text>
<text id="XMLID_879_" transform="matrix(0.9837 0 0 1 -126.2778 435.79)" fill="none" stroke="#F95858" stroke-miterlimit="10" font-family="'ArialMT'" font-size="84.7603px">2</text>
</svg>
