<?xml version="1.0" encoding="utf-8"?>
<!-- Generator: Adobe Illustrator 19.0.0, SVG Export Plug-In . SVG Version: 6.00 Build 0)  -->
<svg version="1.1" id="Layer_1" xmlns="http://www.w3.org/2000/svg" xmlns:xlink="http://www.w3.org/1999/xlink" x="0px" y="0px"
	 viewBox="-203 297 203.4 200" enable-background="new -203 297 203.4 200" xml:space="preserve">
<path id="XMLID_226_" fill="#B2CFA9" d="M-27.2,347.2L-93,308.4c-1.6-1-4-1.5-6-1.5l0,0c-3,0-4.8,0.5-6.4,1.5l-66.2,38.8
	c-3.4,2-6.4,7-6.4,11v20.1V418v17.8c0,4,2.9,9,6.3,11l66.1,38.8c1.6,1,3.9,1.5,6.3,1.5s4.6-0.5,6.3-1.5l65.9-38.8
	c3.4-2,6.2-7,6.2-11V418v-59.8C-21,354.3-23.8,349.2-27.2,347.2z M-29,418v17.8c0,0.8-1.4,2.9-2.1,3.3l-66.2,38.8
	c-0.2,0.1-1,0.3-2,0.3s-1.8-0.2-1.9-0.3l-66-38.8c-0.7-0.4-1.8-2.5-1.8-3.3V418v-39.7v-20.1c0-0.8,1.1-2.9,1.8-3.3l66.2-38.8
	c0.2-0.1,1-0.3,2-0.3l0,0c1,0,1.5,0.2,1.7,0.3l66.2,38.8c0.7,0.4,2.1,2.5,2.1,3.3V418z"/>
<path id="XMLID_218_" fill="#0674EC" d="M-3.7,401.1c-0.8-1.7-0.8-4.6,0-6.3L2,383c0.6-1.3,0.6-2,0-3s-1.7-1-3-1h-10v-20.8
	c0-7.6-4.7-15.8-11.2-19.6l-66-38.8c-3.1-1.8-7-2.8-11.1-2.8s-8,1-11.1,2.8l-65.8,38.8c-6.4,3.8-10.8,12.1-10.8,19.6V379h-10.5
	c-1.3,0-2.4,0-3,1s-0.6,2,0,3.3l5.6,11.7c0.8,1.7,0.8,4.5,0,6.2l-5.7,11.5c-0.6,1.2-0.6,2.7-0.1,3.6c0.6,1,1.7,1.7,3.1,1.7h10.6
	v17.8c0,7.6,4.4,15.9,10.8,19.6l65.9,38.8c3.1,1.8,7,2.8,11,2.8s7.9-1,11-2.8l66.1-38.8c6.4-3.8,11.2-12,11.2-19.6V418h9.9
	c1.4,0,2.5-0.8,3.1-1.7c0.6-0.9,0.5-2.2-0.1-3.5L-3.7,401.1z M-21,378.3L-21,378.3V418l0,0v17.8c0,4-2.8,9-6.2,11l-66,38.8
	c-1.6,1-3.8,1.5-6.2,1.5c-2.4,0-4.6-0.5-6.2-1.5l-66.1-38.8c-3.4-2-6.3-7-6.3-11V418l0,0v-39.7l0,0v-20.1c0-4,2.9-9,6.3-11
	l66.1-38.8c1.6-1,3.9-1.5,6.3-1.5s4.6,0.5,6.3,1.5l65.9,38.8c3.4,2,6.2,7,6.2,11v20.1H-21z"/>
<path id="XMLID_213_" fill="#FFFFFF" d="M-29,358.2v77.5c0,0.8-1.4,2.9-2.1,3.3l-66.2,38.8c-0.2,0.1-1,0.3-2,0.3s-1.8-0.2-1.9-0.3
	l-66-38.8c-0.7-0.4-1.8-2.5-1.8-3.3v-77.5c0-0.8,1.1-2.9,1.8-3.3l66-38.8c0.2-0.1,0.9-0.3,1.9-0.3s1.7,0.2,1.9,0.3l66.3,38.8
	C-30.4,355.4-29,357.4-29,358.2z"/>
<path id="XMLID_90_" fill="#F4CC6A" d="M-99.6,388.3L-99.6,388.3L-99.6,388.3z"/>
<path id="XMLID_88_" fill="#F4CC6A" d="M-99.6,388.3L-99.6,388.3L-99.6,388.3z"/>
<path id="XMLID_86_" fill="#F4CC6A" d="M-99.6,388.3L-99.6,388.3L-99.6,388.3z"/>
<g>
	<g id="XMLID_1_">
		<polygon id="XMLID_2065_" fill="#38A049" points="-67.6,457.5 -88.4,457.5 -104.9,429.5 -84.2,429.5 		"/>
		<polygon id="XMLID_2042_" fill="#38A049" points="-93.7,429.5 -110.3,457.5 -131,457.5 -114.5,429.5 		"/>
	</g>
	<path fill="#38A049" d="M-86.1,440.3c-0.8,0-1.6-0.1-2.3-0.3l-6-1.7c-1.3-0.4-3-0.6-4.9-0.6c-1.8,0-3.6,0.2-4.9,0.6l-6,1.7
		c-0.7,0.2-1.5,0.3-2.3,0.3c-3.1,0-6.2-1.4-7.9-3.6l-3.9-5c-1.7-2.2-5.3-4.8-7.8-5.7l-5.9-2.1c-3.4-1.2-6.2-5.1-6.3-8.7l-0.2-6.3
		c-0.1-2.7-1.5-7-3-9.2l-3.5-5.2c-2-3-2-7.7,0-10.8l3.5-5.2c1.5-2.3,2.9-6.5,3-9.2l0.2-6.3c0.1-3.6,2.9-7.5,6.3-8.7l5.9-2.1
		c2.6-0.9,6.2-3.5,7.8-5.7l3.9-5c1.7-2.2,4.9-3.6,7.9-3.6c0.8,0,1.6,0.1,2.3,0.3l6,1.7c1.3,0.4,3,0.6,4.9,0.6s3.6-0.2,4.9-0.6l6-1.7
		c0.7-0.2,1.5-0.3,2.3-0.3c3.1,0,6.2,1.4,7.9,3.6l3.9,5c1.7,2.2,5.3,4.8,7.8,5.7l5.9,2.1c3.4,1.2,6.2,5.1,6.3,8.7l0.2,6.3
		c0.1,2.7,1.5,7,3,9.2l3.5,5.2c2,3,2,7.7,0,10.8l-3.5,5.2c-1.5,2.3-2.9,6.5-3,9.2l-0.2,6.3c-0.1,3.6-2.9,7.5-6.3,8.7l-5.9,2.1
		c-2.6,0.9-6.2,3.5-7.8,5.7l-3.9,5C-79.9,438.8-83,440.3-86.1,440.3z"/>
</g>
<circle fill="#62BB46" cx="-99.2" cy="388.8" r="38.2"/>
<g>
	<path fill="#FFFFFF" d="M-86.1,339.3c2.5,0,5.2,1.2,6.7,3.1l3.9,5c1.9,2.4,5.7,5.2,8.5,6.2l5.9,2.1c2.8,1,5.2,4.3,5.3,7.3l0.2,6.3
		c0.1,3,1.6,7.5,3.3,10l3.5,5.2c1.7,2.5,1.7,6.6,0,9.1l-3.5,5.2c-1.7,2.5-3.2,7-3.3,10l-0.2,6.3c-0.1,3-2.5,6.3-5.3,7.3l-5.9,2.1
		c-2.8,1-6.7,3.8-8.5,6.2l-3.9,5c-1.5,1.9-4.2,3.1-6.7,3.1c-0.7,0-1.3-0.1-1.9-0.3l-6-1.7c-1.4-0.4-3.4-0.6-5.3-0.6
		s-3.8,0.2-5.3,0.6l-6,1.7c-0.6,0.2-1.3,0.3-1.9,0.3c-2.5,0-5.2-1.2-6.7-3.1l-3.9-5c-1.9-2.4-5.7-5.2-8.5-6.2l-5.9-2.1
		c-2.8-1-5.2-4.3-5.3-7.3l-0.2-6.3c-0.1-3-1.6-7.5-3.3-10l-3.5-5.2c-1.7-2.5-1.7-6.6,0-9.1l3.5-5.2c1.7-2.5,3.2-7,3.3-10l0.2-6.3
		c0.1-3,2.5-6.3,5.3-7.3l5.9-2.1c2.8-1,6.7-3.8,8.5-6.2l3.9-5c1.5-1.9,4.2-3.1,6.7-3.1c0.7,0,1.3,0.1,1.9,0.3l6,1.7
		c1.4,0.4,3.4,0.6,5.3,0.6s3.8-0.2,5.3-0.6l6-1.7C-87.4,339.3-86.7,339.3-86.1,339.3 M-86.1,336.3L-86.1,336.3c-1,0-1.9,0.1-2.8,0.4
		l-6,1.7c-1.1,0.3-2.7,0.5-4.4,0.5c-1.7,0-3.3-0.2-4.4-0.5l-6-1.7c-0.9-0.2-1.8-0.4-2.8-0.4c-3.5,0-7.1,1.7-9.1,4.2l-3.9,5
		c-1.5,1.9-4.9,4.4-7.2,5.2l-5.9,2.1c-4,1.4-7.2,5.9-7.3,10.1l-0.2,6.3c-0.1,2.5-1.4,6.4-2.7,8.4l-3.5,5.2c-2.4,3.5-2.4,9,0,12.4
		l3.5,5.2c1.4,2,2.7,6,2.7,8.4l0.2,6.3c0.1,4.2,3.4,8.6,7.3,10.1l5.9,2.1c2.3,0.8,5.7,3.3,7.2,5.2l3.9,5c2,2.6,5.6,4.2,9.1,4.2
		c1,0,1.9-0.1,2.8-0.4l6-1.7c1.1-0.3,2.7-0.5,4.4-0.5c1.7,0,3.3,0.2,4.4,0.5l6,1.7c0.9,0.2,1.8,0.4,2.8,0.4c3.5,0,7.1-1.7,9.1-4.2
		l3.9-5c1.5-1.9,4.9-4.4,7.2-5.2l5.9-2.1c4-1.4,7.2-5.9,7.3-10.1l0.2-6.3c0.1-2.5,1.4-6.4,2.7-8.4l3.5-5.2c2.4-3.5,2.4-9,0-12.4
		l-3.5-5.2c-1.4-2-2.7-6-2.7-8.4l-0.2-6.3c-0.1-4.2-3.4-8.6-7.3-10.1l-5.9-2.1c-2.3-0.8-5.7-3.3-7.2-5.2l-3.9-5
		C-79,337.9-82.6,336.3-86.1,336.3L-86.1,336.3z"/>
	<path fill="#FFFFFF" d="M-99.2,428.5c-21.9,0-39.7-17.8-39.7-39.7c0-21.9,17.8-39.7,39.7-39.7s39.7,17.8,39.7,39.7
		C-59.5,410.7-77.3,428.5-99.2,428.5z M-99.2,352.1c-20.2,0-36.7,16.5-36.7,36.7c0,20.2,16.5,36.7,36.7,36.7s36.7-16.5,36.7-36.7
		C-62.5,368.6-79,352.1-99.2,352.1z"/>
	<g>
		<path fill="#FFFFFF" d="M-110,408.6h-8.5c-0.8,0-1.4-0.6-1.4-1.4v-22.8c0-0.8,0.6-1.4,1.4-1.4h8.5c0.8,0,1.4,0.6,1.4,1.4v22.8
			C-108.6,407.9-109.2,408.6-110,408.6z"/>
		<path fill="#FFFFFF" d="M-78.7,386.2c-0.2-1.9-1.9-3.2-3.7-3.2h-12.1c3.3-2.7,5.6-6.3,5.9-9.2c0.2-2.2-1.3-4.3-3.5-4.3
			c-2,0-3.6,1.6-3.6,3.5c0,1.3-2.8,5.1-8,6.8l0,0c-1.2,0.4-2,1.6-2,2.9v23.1c0,0.8,0.6,1.4,1.4,1.4h18.4c1.4,0,2.7-1,3-2.4
			c0.3-1.8-1.1-3.3-2.8-3.3h1.3c1.4,0,2.7-1,3-2.4c0.3-1.8-1.1-3.3-2.8-3.3h1.3c1.4,0,2.7-1,3-2.4c0.3-1.8-1.1-3.3-2.8-3.3h0.7
			C-80.1,390.1-78.5,388.3-78.7,386.2z"/>
	</g>
</g>
</svg>
