<?xml version="1.0" encoding="utf-8"?>
<!-- Generator: Adobe Illustrator 19.0.0, SVG Export Plug-In . SVG Version: 6.00 Build 0)  -->
<svg version="1.1" id="Layer_1" xmlns="http://www.w3.org/2000/svg" xmlns:xlink="http://www.w3.org/1999/xlink" x="0px" y="0px"
	 viewBox="-203 297 203.4 200" enable-background="new -203 297 203.4 200" xml:space="preserve">
<path id="XMLID_229_" fill="#ADE2AB" d="M-27.2,347.2L-93,308.4c-1.6-1-4-1.5-6-1.5l0,0c-3,0-4.8,0.5-6.4,1.5l-66.2,38.8
	c-3.4,2-6.4,7-6.4,11v20.1V418v17.8c0,4,3,9,6.3,11l66,38.8c1.6,1,3.9,1.5,6.3,1.5s4.6-0.5,6.3-1.5l65.9-38.8c3.4-2,6.2-7,6.2-11
	V418v-59.8C-21,354.3-23.8,349.2-27.2,347.2z M-30,418v17.8c0,0.8-0.9,2.9-1.6,3.3l-65.9,38.8c-0.2,0.1-0.8,0.3-1.8,0.3
	s-1.7-0.2-1.9-0.3l-65.9-38.8c-0.7-0.4-1.8-2.5-1.8-3.3V418v-39.7v-20.1c0-0.8,1.1-2.9,1.8-3.3l66.1-38.8c0.2-0.1,1-0.3,2-0.3l0,0
	c1,0,1.5,0.2,1.7,0.3l65.7,38.8c0.7,0.4,1.6,2.5,1.6,3.3V418z"/>
<path id="XMLID_222_" fill="#0674EC" d="M-3.7,401.1c-0.8-1.7-0.8-4.6,0-6.3L2,383c0.6-1.3,0.6-2,0-3s-1.7-1-3-1h-10v-20.8
	c0-7.6-4.8-15.8-11.2-19.6l-66-38.8c-3.1-1.8-7-2.8-11.1-2.8c-4,0-8,1-11.1,2.8l-65.7,38.8c-6.5,3.8-10.9,12.1-10.9,19.6V379h-10.5
	c-1.3,0-2.4,0-3,1s-0.6,2,0,3.3l5.6,11.7c0.8,1.7,0.8,4.5,0,6.2l-5.7,11.5c-0.6,1.2-0.6,2.7-0.1,3.6c0.6,1,1.7,1.7,3.1,1.7h10.6
	v17.8c0,7.6,4.4,15.9,10.8,19.6l65.9,38.8c3.1,1.8,7,2.8,11,2.8s7.9-1,11-2.8l66.1-38.8c6.4-3.8,11.2-12,11.2-19.6V418h9.9
	c1.4,0,2.5-0.8,3.1-1.7c0.6-0.9,0.5-2.2-0.1-3.5L-3.7,401.1z M-21,378.3L-21,378.3V418l0,0v17.8c0,4-2.8,9-6.2,11l-66,38.8
	c-1.6,1-3.8,1.5-6.2,1.5c-2.4,0-4.6-0.5-6.2-1.5l-66.1-38.8c-3.4-2-6.3-7-6.3-11V418l0,0v-39.7l0,0v-20.1c0-4,3-9,6.3-11l66-38.8
	c1.6-1,3.9-1.5,6.3-1.5s4.6,0.5,6.3,1.5l65.9,38.8c3.4,2,6.2,7,6.2,11L-21,378.3L-21,378.3z"/>
<path id="XMLID_217_" fill="#FFFFFF" d="M-30,358.2v77.5c0,0.8-0.9,2.9-1.6,3.3l-65.9,38.8c-0.2,0.1-0.8,0.3-1.8,0.3
	s-1.7-0.2-1.9-0.3l-65.9-38.8c-0.7-0.4-1.8-2.5-1.8-3.3v-77.5c0-0.8,1.1-2.9,1.8-3.3l66-38.8c0.2-0.1,0.9-0.3,1.9-0.3
	s1.7,0.2,1.9,0.3l65.8,38.8C-30.9,355.4-30,357.4-30,358.2z"/>
<g id="XMLID_1981_">
	<path id="XMLID_2315_" fill="#39B54A" d="M-74,410.9c-3.7,5.2-9.7,8.6-16.4,8.6h-9.4c-3.3,0-6-2.1-7.1-5.1
		c-1.3-0.4-2.6-0.9-3.8-1.5c-2.6-1.3-5-3.2-7.1-5.4c-13.6,3.1-23.8,15.5-23.8,30.4v1.9c0,2.7,2.1,4.8,4.7,4.8h73.4
		c2.6,0,4.7-2.2,4.7-4.8v-1.9C-58.8,426.3-64.9,416.3-74,410.9L-74,410.9z"/>
	<path id="XMLID_1982_" fill="#39B54A" d="M-122.8,397.4c2,0,3.8-1.2,4.7-2.9c0,0.1,0,0.1,0.1,0.2v0.1c2.2,5.8,6.3,10.7,11.9,12.8
		c1.3-2.2,3.7-3.6,6.4-3.6h9.4c0.9,0,1.8-0.3,2.6-0.7c1.3-0.7,2.5-2.6,3-3.6c1-1.6,1.7-3.3,2.4-5.1c0.4,0.7,0.9,1.3,1.5,1.8v2.4
		c0,5.4-4.3,9.7-9.5,9.7h-9.4c-1.8,0-3.2,1.5-3.2,3.3c0,1.8,1.4,3.3,3.2,3.3h9.4c8.8,0,15.9-7.3,15.9-16.3v-2.4
		c1.3-1,2.2-2.6,2.2-4.4v-13.9c0-1.8-0.9-3.5-2.2-4.5c-1.1-13.6-12.2-24.3-25.8-24.3c-13.6,0-24.7,10.7-25.8,24.3
		c-1.4,1-2.2,2.6-2.2,4.5v13.8C-128.2,395-125.8,397.4-122.8,397.4L-122.8,397.4z M-100.2,355.9c10,0,18.3,7.8,19.3,17.9
		c-0.6,0.5-1.2,1.2-1.5,1.9c-3-8.1-9.9-13.8-17.8-13.8c-8.1,0-14.8,5.9-17.8,13.8l0,0c-0.4-0.8-0.9-1.4-1.5-1.9
		C-118.5,363.8-110.3,355.9-100.2,355.9L-100.2,355.9z"/>
</g>
</svg>
