<?xml version="1.0" encoding="utf-8"?>
<!-- Generator: Adobe Illustrator 19.0.0, SVG Export Plug-In . SVG Version: 6.00 Build 0)  -->
<svg version="1.1" id="Layer_1" xmlns="http://www.w3.org/2000/svg" xmlns:xlink="http://www.w3.org/1999/xlink" x="0px" y="0px"
	 viewBox="-203 297 203.4 200" enable-background="new -203 297 203.4 200" xml:space="preserve">
<path id="XMLID_29_" fill="#FFFFFF" d="M-30,358.2v77.5c0,0.8-0.9,2.9-1.6,3.3l-65.9,38.8c-0.2,0.1-0.8,0.3-1.8,0.3
	s-1.7-0.2-1.9-0.3l-65.9-38.8c-0.7-0.4-1.8-2.5-1.8-3.3v-77.5c0-0.8,1.1-2.9,1.8-3.3l66-38.8c0.2-0.1,0.9-0.3,1.9-0.3
	s1.7,0.2,1.9,0.3l65.8,38.8C-30.9,355.4-30,357.4-30,358.2z"/>
<path id="XMLID_17_" fill="#0674EC" d="M-3.7,401.1c-0.8-1.7-0.8-4.6,0-6.3L2,383c0.6-1.3,0.6-2.5,0-3.5S0.3,378-1,378h-10v-19.8
	c0-7.6-4.8-15.8-11.2-19.6l-66-38.8c-3.1-1.8-7-2.8-11.1-2.8c-4,0-8,1-11.1,2.8l-65.7,38.8c-6.5,3.8-10.9,12.1-10.9,19.6V378h-10.5
	c-1.3,0-2.4,0.5-3,1.5s-0.6,2.3,0,3.6l5.7,11.8c0.8,1.7,0.8,4.6,0,6.2l-5.7,11.6c-0.6,1.2-0.6,2.7-0.1,3.6c0.6,1,1.7,1.7,3.1,1.7
	h10.5v17.8c0,7.6,4.4,15.9,10.8,19.6l65.9,38.8c3.1,1.8,7,2.8,11,2.8s7.9-1,11-2.8l66.1-38.8c6.4-3.8,11.2-12,11.2-19.6V418h9.9
	c1.4,0,2.5-0.8,3.1-1.7c0.6-0.9,0.5-2.3-0.1-3.5L-3.7,401.1z M-21,435.8c0,4-2.8,9-6.2,11l-66,38.8c-1.6,1-3.8,1.5-6.2,1.5
	c-2.4,0-4.6-0.5-6.2-1.5l-66.1-38.8c-3.4-2-6.3-7-6.3-11v-77.6c0-4,3-9,6.3-11l66.2-38.8c1.6-1,3.5-1.5,6.5-1.5l0,0
	c2,0,4.4,0.5,6.1,1.5l65.9,38.8c2.1,1.2,3.9,3.7,5,6.3c0.7,1.6,1,3.2,1,4.7V435.8z"/>
<path id="XMLID_50_" fill="#CCB0D4" d="M-22,353.5c-1.1-2.6-3-5.1-5.1-6.3L-93,308.4c-1.6-1-4-1.5-6-1.5l0,0c-3,0-4.8,0.5-6.4,1.5
	l-66.2,38.8c-3.4,2-6.4,7-6.4,11v77.5c0,4,3,9,6.3,11l66,38.8c1.6,1,3.9,1.5,6.3,1.5s4.6-0.5,6.3-1.5l65.9-38.8c3.4-2,6.2-7,6.2-11
	v-77.5C-21,356.7-21.3,355.1-22,353.5z M-30,435.8c0,0.8-0.9,2.9-1.6,3.3l-65.9,38.8c-0.2,0.1-0.8,0.3-1.8,0.3s-1.7-0.2-1.9-0.3
	l-65.9-38.8c-0.7-0.4-1.8-2.5-1.8-3.3v-77.6c0-0.8,1.1-2.9,1.8-3.3l66.1-38.7c0.2-0.1,1-0.3,2-0.3l0,0c1,0,1.5,0.2,1.7,0.3
	l65.7,38.8c0.7,0.4,1.6,2.5,1.6,3.3V435.8z"/>
<g>
	<path id="XMLID_808_" fill="#9853A1" d="M-100.6,370.6c0.1,0,0.6,0,0.6,0V340c-1,0-1.2,0.3-1.6,0.7c-13.2,14.2-20.2,34.8-20.5,54.4
		c0,0,0,13.3,2.2,20.9c0.6,2.6,1.2,5.6,2.2,7.9c0.3,1,0.9,2.1,2.2,2.1h15.5v-26c0,0-0.4,0-0.6,0c-7.9,0-14.4-6.6-14.4-14.7
		C-114.9,377.2-108.5,370.6-100.6,370.6z"/>
	<path id="XMLID_811_" fill="#9853A1" d="M-112.5,430.8c-2.5,0-4.5,1.9-4.5,4.5v13.5c0,2.6,2,4.5,4.5,4.5s4.5-1.9,4.5-4.5v-13.5
		C-108,432.7-110,430.8-112.5,430.8z"/>
	<path id="XMLID_845_" fill="#9853A1" d="M-100,430.8v27.7c-3,0-4-1.9-4-4.5v-18.7C-104,432.7-103,430.8-100,430.8z"/>
	<g id="XMLID_869_">
		<path id="XMLID_921_" fill="#9853A1" d="M-101.2,395c-0.1-0.1-0.1-0.2-0.1-0.4v-1.5c-1-0.1-1.8-0.3-2.5-0.7
			c-0.7-0.4-1.2-0.9-1.6-1.4c-0.4-0.6-0.6-1.2-0.6-1.8c0-0.1,0-0.2,0.1-0.3s0.2-0.1,0.3-0.1h1.9c0.2,0,0.3,0,0.4,0.1
			s0.2,0.2,0.3,0.3c0.2,0.5,0.5,0.9,1,1.2c0.5,0.3,1.2,0.5,2,0.5c0.9,0,1.7-0.2,2.2-0.5s0.7-0.8,0.7-1.4c0-0.4-0.1-0.7-0.4-0.9
			c-0.2-0.3-0.6-0.5-1.1-0.7s-1.2-0.4-2.2-0.7c-1.6-0.4-2.8-0.9-3.6-1.6c-0.8-0.6-1.1-1.6-1.1-2.8c0-1.1,0.4-2,1.2-2.8
			c0.8-0.8,1.8-1.2,3.2-1.4v-1.5c0-0.2,0-0.3,0.1-0.4s0.2-0.1,0.3-0.1h1.3c0.2,0,0.3,0,0.4,0.1s0.1,0.2,0.1,0.4v1.5
			c0.9,0.1,1.7,0.4,2.3,0.8c0.6,0.4,1.1,0.9,1.5,1.4c0.3,0.5,0.5,1.1,0.5,1.6c0,0.1,0,0.2-0.1,0.3c-0.1,0.1-0.2,0.1-0.3,0.1h-2
			c-0.3,0-0.5-0.1-0.6-0.4c-0.1-0.4-0.4-0.8-0.8-1.1c-0.5-0.3-1-0.5-1.7-0.5c-0.8,0-1.3,0.1-1.8,0.4c-0.4,0.3-0.6,0.7-0.6,1.3
			c0,0.4,0.1,0.7,0.3,0.9c0.2,0.3,0.6,0.5,1,0.7c0.5,0.2,1.1,0.4,2,0.6c1.2,0.3,2.2,0.6,2.9,0.9c0.7,0.4,1.3,0.8,1.6,1.3
			c0.3,0.5,0.5,1.2,0.5,2c0,1.2-0.4,2.2-1.3,3c-0.9,0.8-2,1.2-3.5,1.4v1.5c0,0.2,0,0.3-0.1,0.4c-0.1,0.1-0.2,0.1-0.4,0.1h-1.3
			C-101,395.1-101.1,395.1-101.2,395z"/>
	</g>
	<path id="XMLID_929_" fill="#9853A1" d="M-122.1,418.1c-6,3.5-10.4,8.7-12.9,14.5c-5.7-12.9-0.6-27,10.7-35.4
		C-124.3,397.2-124.3,410.5-122.1,418.1z"/>
</g>
<g>
	<path id="XMLID_928_" fill="#7C2A90" d="M-80.7,416.4c-0.3,2.3-0.9,5.2-1.9,7.5c-0.3,1-0.9,2.1-1.6,2.1H-100v-26
		c7-0.2,14-6.7,14-14.7s-7-14.5-14-14.7V340c0,0,1,0.2,1.5,0.7c13.2,14.2,20,34.7,20,54.7C-78.4,395.4-78.2,406.1-80.7,416.4z"/>
	<path id="XMLID_810_" fill="#7C2A90" d="M-87.5,430.8c-2.5,0-3.5,1.9-3.5,4.5v13.5c0,2.6,1,4.5,3.5,4.5s3.5-1.9,3.5-4.5v-13.5
		C-84,432.7-85,430.8-87.5,430.8z"/>
	<path id="XMLID_846_" fill="#7C2A90" d="M-96,435.3V454c0,2.6-2,4.5-4,4.5v-27.7C-98,430.8-96,432.7-96,435.3z"/>
	<path id="XMLID_931_" fill="#7C2A90" d="M-65.8,433c-2.5-5.8-6.9-10.9-12.9-14.4c2.5-10.4,2.2-21,2.2-21
		C-64.5,405.9-60.1,420.1-65.8,433z"/>
</g>
</svg>
